<svg xmlns="http://www.w3.org/2000/svg"><defs><font id="a" horiz-adv-x="416"><font-face font-family="Miso" font-style="italic" font-weight="400" ascent="800" bbox="-32 -204 1032 873" cap-height="640" descent="-200" panose-1="0 0 0 0 0 0 0 0 0 0" slope="10" stemh="64" stemv="64" underline-position="96" underline-thickness="96" unicode-range="U+0020-U+2122" units-per-em="1e3" x-height="454"/><missing-glyph horiz-adv-x="192"/><glyph glyph-name=".notdef" horiz-adv-x="192"/><glyph d="M208-4C124-4 56 64 56 148v340c0 84 68 152 152 152s152-68 152-152V148C360 64 292-4 208-4zm0 580c-49 0-88-40-88-88V148c0-49 39-88 88-88 48 0 88 39 88 88v340c0 48-40 88-88 88z" glyph-name="O" unicode="O"/><glyph d="M56 488c0 84 68 152 152 152s152-68 152-152V148c0-45-19-85-50-113l46-79c9-15 3-35-12-44-15-8-35-3-44 12L255 3c-15-4-31-7-47-7C124-4 56 64 56 148v340zm152 88c-48 0-88-40-88-88V148c0-49 40-88 88-88 49 0 88 39 88 88v340c0 48-39 88-88 88z" glyph-name="Q" unicode="Q"/><glyph d="M372 428c0-64-38-118-94-141l92-248c7-16-2-34-19-41-16-7-34 2-41 19l-96 259h-82V28c0-19-13-32-32-32C83-4 68 9 68 28v576c0 19 15 32 32 32h120c84 0 152-68 152-152v-56zM220 340c49 0 88 39 88 88v56c0 48-39 88-88 88h-88V340h88z" glyph-name="R" unicode="R"/><glyph d="M240 79c23 17 35 39 37 67 3 27-7 53-26 72L91 382c-31 31-46 74-42 117 3 44 25 83 60 110s79 37 122 28 78-34 101-73c9-15 4-35-12-44-15-9-35-3-43 12-13 23-33 37-59 42s-50 0-71-16c-21-15-32-36-34-63-2-26 6-49 24-68l160-165c31-32 47-76 44-121-4-45-26-86-62-113S197-10 153-1 71 35 48 74c-8 16-3 35 12 44s35 4 44-12c13-23 35-39 62-44s52 0 74 17z" glyph-name="S" horiz-adv-x="382" unicode="S"/><glyph d="M320 636c19 0 32-13 32-32s-13-32-32-32h-98V28c0-19-13-32-32-32-17 0-32 13-32 32v544H60c-17 0-32 13-32 32s15 32 32 32h260z" glyph-name="T" horiz-adv-x="380" unicode="T"/><glyph d="M124 148c0-49 39-88 88-88 48 0 88 39 88 88v460c0 19 13 32 32 32 17 0 32-13 32-32V148C364 64 295-4 212-4 128-4 60 64 60 148v460c0 19 13 32 32 32 17 0 32-13 32-32V148z" glyph-name="U" horiz-adv-x="424" unicode="U"/><glyph d="M34 599c-5 17 5 35 22 40 17 4 35-6 39-23l50-179c27-99 58-216 80-289 19 73 52 191 79 289l50 179c4 17 22 27 39 23 17-5 27-23 22-40L255 19c-3-13-15-23-30-23s-27 10-31 23z" glyph-name="V" horiz-adv-x="448" unicode="V"/><glyph d="M38 6e2c-4 19 6 35 23 39s35-5 39-24c13-57 27-112 40-167 21-93 50-207 69-284 19 77 44 192 68 284l41 167c3 15 16 25 31 25 16 0 26-8 31-25 13-57 27-112 40-167 21-93 50-207 69-284 19 77 44 192 68 284l41 167c4 19 21 28 38 24s28-20 24-39L520 20c-4-15-16-24-31-24s-28 9-31 24l-41 167c-24 93-49 208-68 285-19-77-48-192-69-285L240 20c-4-15-16-24-31-24s-28 9-31 24z" glyph-name="W" horiz-adv-x="698" unicode="W"/><glyph d="M47-1C31 7 24 26 32 42l143 286L42 594c-8 15-1 35 15 43 15 7 35 1 43-15l111-222 111 222c8 16 27 22 43 15 16-8 22-28 15-43L247 328 390 42c7-16 1-35-15-43s-35-1-43 15L211 256 90 14C82-2 62-9 47-1z" glyph-name="X" horiz-adv-x="422" unicode="X"/><glyph d="M169 320 32 594c-8 15-1 35 15 43 15 7 35 1 43-15l111-222 111 222c8 16 27 22 43 15 16-8 23-28 15-43L233 320V28c0-19-13-32-32-32s-32 13-32 32v292z" glyph-name="Y" horiz-adv-x="402" unicode="Y"/><glyph d="M40 32c0 4 1 8 3 12l98 235 123 293H72c-19 0-32 13-32 32s13 32 32 32h240c12 0 21-5 27-14 3-7 5-13 5-18 0-3-1-7-2-12l-99-236L120 64h192c19 0 32-13 32-32S331 0 312 0H72C60 0 51 5 45 14c-3 7-5 13-5 18z" glyph-name="Z" horiz-adv-x="384" unicode="Z"/><glyph d="M387-3c-15-4-29 4-36 17l-82 169-137 285V28c0-19-13-32-32-32S68 9 68 28v580c0 15 10 28 25 31s29-4 36-17l81-169 138-285v440c0 19 13 32 32 32s32-13 32-32V28c0-15-10-28-25-31z" glyph-name="N" horiz-adv-x="480" unicode="N"/><glyph d="M1e2-4C81-4 68 9 68 28v580c0 15 10 28 25 31s29-4 36-17l51-108 80-171 80 171 51 108c7 13 21 20 36 17s25-16 25-31V28c0-19-15-32-32-32-19 0-32 13-32 32v437l-67-143-32-68c-7-12-16-18-29-18-14 0-24 6-29 18l-32 68-67 143V28c0-19-15-32-32-32z" glyph-name="M" horiz-adv-x="520" unicode="M"/><glyph d="M1e2.0C81 0 68 13 68 32v576c0 19 13 32 32 32 17 0 32-13 32-32V64h168c17 0 32-13 32-32S317 0 3e2.0H1e2z" glyph-name="L" horiz-adv-x="348" unicode="L"/><glyph d="M389 42c8-16 1-35-15-43s-35-1-42 15L188 311l-56-78V28c0-19-13-32-32-32C83-4 68 9 68 28v580c0 19 15 32 32 32 19 0 32-13 32-32V343l202 284c11 15 30 18 45 7s18-30 7-45L231 371z" glyph-name="K" horiz-adv-x="421" unicode="K"/><glyph d="M269 148c0-55-29-105-76-132-23-13-49-20-76-20S64 3 41 16c-16 9-21 29-12 44s28 21 44 12c13-8 28-12 43-12 16 0 31 4 45 12 27 15 44 45 44 76v460c0 19 13 32 32 32 17 0 32-13 32-32V148z" glyph-name="J" horiz-adv-x="333" unicode="J"/><glyph d="M1e2-4C83-4 68 9 68 28v580c0 19 15 32 32 32 19 0 32-13 32-32V28c0-19-13-32-32-32z" glyph-name="I" horiz-adv-x="200" unicode="I"/><glyph d="M308 608c0 19 15 32 32 32 19 0 32-13 32-32V28c0-19-13-32-32-32-17 0-32 13-32 32v268H132V28c0-19-13-32-32-32C83-4 68 9 68 28v580c0 19 15 32 32 32 19 0 32-13 32-32V360h176v248z" glyph-name="H" horiz-adv-x="440" unicode="H"/><glyph d="M56 488c0 69 46 128 113 147s136-12 171-71c9-15 4-35-12-44-15-9-35-3-44 12-19 35-59 52-98 41s-66-45-66-85V148c0-49 40-88 88-88 49 0 88 39 88 88v128h-68c-17 0-32 13-32 32s15 32 32 32h1e2c19 0 32-13 32-32V148C360 64 292-4 208-4S56 64 56 148v340z" glyph-name="G" horiz-adv-x="412" unicode="G"/><glyph d="M1e2.0C83 0 68 13 68 32v572c0 19 15 32 32 32h2e2c19 0 32-13 32-32s-13-32-32-32H132V360h148c19 0 32-13 32-32s-13-32-32-32H132V32c0-19-13-32-32-32z" glyph-name="F" horiz-adv-x="360" unicode="F"/><glyph d="M68 604c0 19 13 32 32 32h2e2c19 0 32-13 32-32s-13-32-32-32H132V360h148c19 0 32-13 32-32s-13-32-32-32H132V64h168c19 0 32-13 32-32S319 0 3e2.0H1e2C81 0 68 13 68 32v572z" glyph-name="E" horiz-adv-x="368" unicode="E"/><glyph d="M220 636c84 0 152-68 152-152V152C372 68 304 0 220 0H1e2C81 0 68 13 68 32v572c0 19 13 32 32 32h120zm88-152c0 48-39 88-88 88h-88V64h88c49 0 88 39 88 88v332z" glyph-name="D" horiz-adv-x="428" unicode="D"/><glyph d="M169 1C101 20 56 79 56 148v340c0 69 45 128 113 147 67 19 136-12 171-71 8-15 3-35-12-44s-35-3-44 12c-20 35-60 52-99 41s-65-45-65-85V148c0-40 26-74 65-85s79 6 99 41c9 15 29 20 44 12 15-9 20-29 12-44-34-60-105-89-171-71z" glyph-name="C" horiz-adv-x="385" unicode="C"/><glyph d="M68 604c0 19 13 32 32 32h120c84 0 152-68 152-152v-36c0-49-23-92-59-120 36-28 59-71 59-120v-56C372 68 304 0 220 0H1e2C81 0 68 13 68 32v572zM308 208c0 48-40 88-88 88h-88V64h88c48 0 88 39 88 88v56zm0 276c0 48-40 88-88 88h-88V360h88c48 0 88 39 88 88v36z" glyph-name="B" horiz-adv-x="428" unicode="B"/><glyph d="M407 36c5-17-4-34-23-39-17-5-34 5-39 22-3 10-6 21-9 33-7 21-14 49-23 84H119c-11-35-16-63-23-84-3-12-6-23-9-33C82 2 66-8 47-3 30 2 20 19 25 36l160 580c4 15 16 24 31 24s27-9 31-24zM295 2e2l-79 288c-21-72-52-189-79-288h158z" glyph-name="A" horiz-adv-x="432" unicode="A"/><glyph d="M192 2C120 2 62 60 62 132v296c0 17 13 30 30 30s30-13 30-30V132c0-39 31-70 70-70h70v366c0 17 13 30 30 30s30-13 30-30V32c0-17-13-30-30-30H192z" glyph-name="u" horiz-adv-x="392" unicode="u"/><glyph d="M36 419c-4 16 5 33 21 38 15 4 32-5 37-20l33-111 58-194 58 194 33 111c5 15 22 24 38 20 16-5 25-22 20-38L214 19c-4-12-16-21-29-21s-25 9-29 21z" glyph-name="v" horiz-adv-x="370" unicode="v"/><glyph d="M39 421c-4 16 6 32 22 36s32-6 36-22c9-33 17-65 25-98 15-56 31-126 46-185 15 59 32 129 47 185l24 98c5 15 14 23 29 23s26-8 29-23c9-33 17-65 25-98 15-56 31-126 46-185 15 59 32 129 47 185l24 98c4 16 20 26 37 22 16-4 25-20 21-36L397 21c-3-15-14-23-29-23s-24 8-29 23l-24 98c-15 56-32 125-47 185-15-60-31-129-46-185-8-33-16-65-25-98-3-15-14-23-29-23s-24 8-29 23z" glyph-name="w" horiz-adv-x="538" unicode="w"/><glyph d="M54 2c-15 8-20 25-12 40l104 190L46 413c-8 15-3 33 12 41s33 3 41-12l81-148 82 148c8 15 26 20 41 12s20-26 12-41L215 232 319 42c8-15 3-32-12-40s-33-4-41 11l-86 156L95 13C87-2 69-6 54 2z" glyph-name="x" horiz-adv-x="360" unicode="x"/><glyph d="M50-202c-17 0-30 13-30 30s13 30 30 30c31 0 58 19 67 50l36 120L36 419c-5 16 4 33 20 38 16 4 32-5 37-20l91-305 92 305c4 15 21 24 37 20 16-5 25-22 20-38L213 19l-38-128c-9-29-25-51-47-67-23-17-49-26-78-26z" glyph-name="y" horiz-adv-x="369" unicode="y"/><glyph d="M42 32c0 4 1 9 3 14l75 148 103 2e2H72c-17 0-30 13-30 30s13 30 30 30h2e2c11 0 20-5 25-14 3-5 5-11 5-16s-1-9-4-14l-75-148c-40-78-86-166-102-2e2h151c16 0 30-13 30-30S288 2 272 2H72C60 2 51 7 46 16c-3 5-4 10-4 16z" glyph-name="z" horiz-adv-x="344" unicode="z"/><glyph d="M56 394c-17 0-30 13-30 30s13 30 30 30h50v174c0 17 13 30 30 30s30-13 30-30V454h70c17 0 30-13 30-30s-13-30-30-30h-70V128c0-39 31-70 70-70 17 0 30-13 30-30S253-2 236-2c-72 0-130 58-130 130v266H56z" glyph-name="t" horiz-adv-x="296" unicode="t"/><glyph d="M202 75c15 14 22 31 20 51-1 20-10 36-27 48l-93 66c-31 21-48 54-51 90-3 37 12 72 39 96 27 25 63 36 99 31 36-7 67-27 86-59 8-15 4-33-11-41s-33-4-41 11c-9 16-24 26-43 29s-36-2-50-15-20-29-19-48 10-34 26-45l93-65c31-23 49-55 52-94s-12-74-40-99C214 4 177-6 140-1c-39 7-70 28-89 61-8 15-4 33 11 41s33 4 41-11c11-17 26-28 46-31 19-3 37 2 53 16z" glyph-name="s" horiz-adv-x="329" unicode="s"/><glyph d="M1e2-2C83-2 70 11 70 28v396c0 17 13 30 30 30h1e2c23 0 44-6 65-17 15-9 19-26 11-41s-26-20-41-11c-11 6-23 9-35 9h-70V28c0-17-13-30-30-30z" glyph-name="r" horiz-adv-x="299" unicode="r"/><glyph d="M188 2C116 2 58 60 58 132v192c0 72 58 130 130 130h1e2c16 0 30-13 30-30v-596c0-17-14-30-30-30-17 0-30 13-30 30V2h-70zm0 392c-39 0-70-31-70-70V132c0-39 31-70 70-70h70v332h-70z" glyph-name="q" horiz-adv-x="388" unicode="q"/><glyph d="M1e2-202c-17 0-30 13-30 30v596c0 17 13 30 30 30h1e2c71 0 130-58 130-130V132C330 60 271 2 2e2 2h-70v-174c0-17-14-30-30-30zM270 324c0 39-31 70-70 70h-70V62h70c39 0 70 31 70 70v192z" glyph-name="p" horiz-adv-x="388" unicode="p"/><glyph d="M188-2C116-2 58 56 58 128v2e2c0 72 58 130 130 130 71 0 130-58 130-130V128C318 56 259-2 188-2zm0 4e2c-39 0-70-31-70-70V128c0-39 31-70 70-70s70 31 70 70v2e2c0 39-31 70-70 70z" glyph-name="o" horiz-adv-x="376" unicode="o"/><glyph d="M1e2-2C83-2 70 11 70 28v396c0 17 13 30 30 30h1e2c71 0 130-58 130-130V28c0-17-14-30-30-30-17 0-30 13-30 30v296c0 39-31 70-70 70h-70V28c0-17-14-30-30-30z" glyph-name="n" horiz-adv-x="392" unicode="n"/><glyph d="M130 394V28c0-17-14-30-30-30-17 0-30 13-30 30v396c0 17 13 30 30 30h3e2c71 0 130-58 130-130V28c0-17-14-30-30-30-17 0-30 13-30 30v296c0 39-31 70-70 70h-70V28c0-17-14-30-30-30-17 0-30 13-30 30v366H130z" glyph-name="m" horiz-adv-x="592" unicode="m"/><glyph d="M122 2C89 22 67 58 67 97v531c0 17 14 30 30 30 17 0 30-13 30-30V97c0-19 10-34 25-43 15-8 20-26 11-41-8-15-26-19-41-11z" glyph-name="l" horiz-adv-x="200" unicode="l"/><glyph d="M346 42c8-15 3-32-12-40s-33-4-41 11L178 224l-48-53V28c0-17-14-30-30-30-17 0-30 13-30 30v6e2c0 17 13 30 30 30 16 0 30-13 30-30V261l167 187c11 12 30 13 43 2 12-11 13-30 2-42L220 272z" glyph-name="k" horiz-adv-x="380" unicode="k"/><glyph d="M108 538c-23 0-40 17-40 40s17 40 40 40 40-17 40-40-17-40-40-40zM8-202c-16 0-30 13-30 30s14 30 30 30c39 0 70 31 70 70v5e2c0 17 14 30 30 30 17 0 30-13 30-30V-72c0-72-58-130-130-130z" glyph-name="j" horiz-adv-x="208" unicode="j"/><glyph d="M1e2 538c-23 0-40 17-40 40s17 40 40 40 40-17 40-40-17-40-40-40zM130 28c0-17-13-30-30-30-16 0-30 13-30 30v4e2c0 17 14 30 30 30 17 0 30-13 30-30V28z" glyph-name="i" horiz-adv-x="200" unicode="i"/><glyph d="M1e2-2C84-2 70 11 70 28v6e2c0 17 14 30 30 30 17 0 30-13 30-30V454h70c72 0 130-58 130-130V28c0-17-13-30-30-30-16 0-30 13-30 30v296c0 39-31 70-70 70h-70V28c0-17-13-30-30-30z" glyph-name="h" horiz-adv-x="392" unicode="h"/><glyph d="M188 2C116 2 58 60 58 132v192c0 72 58 130 130 130h1e2c17 0 30-13 30-30V-72c0-53-31-1e2-80-120s-103-9-142 28c-6 6-9 13-9 22 0 8 3 15 9 20 6 6 13 9 21 9 9 0 16-3 22-9 20-20 49-26 76-15s43 37 43 65V2h-70zm0 392c-39 0-70-31-70-70V132c0-39 31-70 70-70h70v332h-70z" glyph-name="g" horiz-adv-x="384" unicode="g"/><glyph d="M56 394c-17 0-30 13-30 30s13 30 30 30h50v74c0 72 58 130 130 130 17 0 30-13 30-30s-13-30-30-30c-39 0-70-31-70-70v-74h70c17 0 30-13 30-30s-13-30-30-30h-70V28c0-17-13-30-30-30s-30 13-30 30v366H56z" glyph-name="f" horiz-adv-x="296" unicode="f"/><glyph d="M138 8C89 28 58 75 58 128v2e2c0 72 58 130 130 130s130-58 130-130V228c0-17-13-30-30-30H118v-70c0-28 16-54 43-65s56-5 76 15c6 6 13 9 21 9 9 0 16-3 22-9 6-5 9-12 9-21 0-8-3-15-9-21-37-37-93-48-142-28zm50 390c-39 0-70-31-70-70v-70h140v70c0 39-31 70-70 70z" glyph-name="e" horiz-adv-x="368" unicode="e"/><glyph d="M188 2C116 2 58 60 58 132v192c0 72 58 130 130 130h70v174c0 17 13 30 30 30 16 0 30-13 30-30V32c0-17-14-30-30-30H188zm0 392c-39 0-70-31-70-70V132c0-39 31-70 70-70h70v332h-70z" glyph-name="d" horiz-adv-x="388" unicode="d"/><glyph d="M138 8C89 28 58 75 58 128v2e2c0 53 31 1e2 80 120s103 9 142-28c5-6 8-13 8-22 0-8-3-15-8-21-6-5-13-8-22-8-8 0-15 3-21 8-20 21-49 27-76 16s-43-37-43-65V128c0-28 16-54 43-65s56-5 76 15c6 6 13 9 21 9 9 0 16-3 22-9 5-5 8-12 8-21 0-8-3-15-8-21-39-37-93-48-142-28z" glyph-name="c" unicode="c"/><glyph d="M1e2 2C83 2 70 15 70 32v596c0 17 13 30 30 30 16 0 30-13 30-30V454h70c71 0 130-58 130-130V132C330 60 271 2 2e2 2H1e2zm30 392V62h70c39 0 70 31 70 70v192c0 39-31 70-70 70h-70z" glyph-name="b" horiz-adv-x="388" unicode="b"/><glyph d="M230 262v68c0 28-17 52-42 63-27 11-55 5-74-15-6-6-13-9-22-9-8 0-15 3-21 9s-9 13-9 21c0 9 3 16 9 21 37 37 92 48 140 28s79-66 79-118V32c0-17-14-30-30-30H160C88 2 30 60 30 132s58 130 130 130h70zM90 132c0-39 31-70 70-70h70v140h-70c-39 0-70-31-70-70z" glyph-name="a" horiz-adv-x="352" unicode="a"/><glyph d="M208-4C124-4 56 64 56 148v340c0 84 68 152 152 152 83 0 152-68 152-152V148C360 64 291-4 208-4zm0 580c-49 0-88-40-88-88V148c0-49 39-88 88-88 48 0 88 39 88 88v340c0 48-40 88-88 88z" glyph-name="zero" unicode="0"/><glyph d="M134 465c-6-6-13-9-22-9s-16 3-23 9c-6 7-9 14-9 23s3 16 9 23l120 120c9 9 23 11 35 7 13-5 20-15 20-30V28c0-19-15-32-32-32-19 0-32 13-32 32v503z" glyph-name="one" unicode="1"/><glyph d="M76 520c-15 9-21 29-12 44 21 37 51 60 91 70 39 11 79 6 114-13s61-50 72-89c12-39 8-78-11-115l-78-149L145 64h171c17 0 32-13 32-32S333 0 316 0H92C79 0 70 5 65 15c-7 11-7 22-1 32l210 4e2c11 21 13 43 6 66s-21 41-42 52-43 14-66 8c-23-7-41-21-52-41-9-15-29-21-44-12z" glyph-name="two" unicode="2"/><glyph d="M205 63c39 11 65 45 65 85v60c0 48-40 88-88 88-19 0-32 13-32 32s13 32 32 32c48 0 88 39 88 88v40c0 40-26 74-65 85s-79-6-99-41c-9-15-29-21-44-12s-21 29-12 44c35 59 104 90 171 71 68-19 113-78 113-147v-40c0-49-23-92-59-120 36-28 59-71 59-120v-60c0-69-45-128-113-147C155-17 84 12 50 72c-9 15-3 35 12 44 15 8 35 3 44-12 20-35 60-52 99-41z" glyph-name="three" unicode="3"/><glyph d="M74 136c-11 0-19 4-26 13s-8 18-5 29l140 440c7 16 24 27 41 20 15-5 22-15 22-30 0-5-1-8-2-10l-55-174c-29-91-61-190-71-224h124v108c0 19 13 32 32 32s32-13 32-32V2e2h48c19 0 32-13 32-32s-13-32-32-32h-48V28c0-19-13-32-32-32s-32 13-32 32v108H74z" glyph-name="four" unicode="4"/><glyph d="M95 287c-15 4-24 16-24 31v286c0 19 13 32 32 32h208c19 0 32-13 32-32s-13-32-32-32H135V392c35 19 72 23 111 13 68-19 113-78 113-147V148c0-69-45-128-113-147-66-18-137 11-171 71-8 15-3 35 12 44 15 8 35 3 44-12 20-35 60-52 99-41s65 45 65 85v110c0 40-26 74-65 85s-79-6-99-41c-7-13-21-19-36-15z" glyph-name="five" unicode="5"/><glyph d="M217-4C133-4 65 64 65 148v340c0 69 46 128 113 147s136-12 171-71c9-15 3-35-12-44s-35-3-44 12c-19 35-60 52-99 41s-65-45-65-85V372c26 19 55 28 88 28 84 0 152-68 152-152V148C369 64 301-4 217-4zm0 340c-48 0-88-40-88-88V148c0-49 40-88 88-88 49 0 88 39 88 88v1e2c0 48-39 88-88 88z" glyph-name="six" unicode="6"/><glyph d="M85 492c-17 0-32 13-32 32v80c0 19 15 32 32 32h240c10 0 18-4 25-12 7-9 9-19 6-28L216 20c-4-17-21-27-38-23-15 3-25 16-25 31 0 3 1 5 1 8l59 242c32 125 64 259 72 294H117v-48c0-19-13-32-32-32z" glyph-name="seven" unicode="7"/><glyph d="M208-4C125-4 56 64 56 148v60c0 49 23 92 59 120-36 28-59 71-59 120v40c0 84 69 152 152 152 84 0 152-68 152-152v-40c0-49-23-92-58-120 35-28 58-71 58-120v-60C360 64 292-4 208-4zM120 448c0-49 40-88 88-88 49 0 88 39 88 88v40c0 48-39 88-88 88-48 0-88-40-88-88v-40zM296 208c0 48-39 88-88 88-48 0-88-40-88-88v-60c0-49 40-88 88-88 49 0 88 39 88 88v60z" glyph-name="eight" unicode="8"/><glyph d="M199 236c-83 0-152 68-152 152v1e2c0 84 69 152 152 152 84 0 152-68 152-152V148c0-69-45-128-112-147-68-19-136 11-171 71-9 15-4 35 11 44 16 8 35 3 44-12 20-35 60-52 99-41s65 45 65 85v116c-25-19-54-28-88-28zm0 340c-48 0-88-40-88-88V388c0-49 40-88 88-88 49 0 88 39 88 88v1e2c0 48-39 88-88 88z" glyph-name="nine" unicode="9"/><glyph d="M54 38c0 23 19 42 42 42s42-19 42-42S119-4 96-4 54 15 54 38z" glyph-name="period" horiz-adv-x="192" unicode="."/><glyph d="M609 544c60-61 93-141 93-226V132C702 60 644 2 572 2H372c-71 0-130 58-130 130 0 71 59 130 130 130h70v68c0 27-16 51-43 62s-56 5-76-15c-6-5-13-8-22-8-8 0-15 3-21 9-5 6-8 13-8 21 0 9 3 16 9 21 37 37 92 47 140 28 49-19 81-66 81-118V62h70c39 0 70 31 70 70v186c0 69-27 134-76 183-49 51-113 77-184 77-69 0-134-26-183-77-51-49-77-114-77-183V138c0-71 26-135 77-184 49-49 114-76 183-76h110c17 0 30-14 30-30 0-17-13-30-30-30H382c-85 0-165 33-226 93C96-28 62 51 62 138v180c0 85 34 165 94 226 61 60 141 94 226 94 87 0 166-34 227-94zM302 132c0-39 31-70 70-70h70v140h-70c-39 0-70-31-70-70z" glyph-name="at" horiz-adv-x="764" unicode="@"/><glyph d="M264 588c0-47-37-84-84-84s-84 37-84 84 37 84 84 84 84-37 84-84zm-120 0c0-20 16-36 36-36s36 16 36 36-16 36-36 36-36-16-36-36zm86-326v68c0 28-15 52-42 63-25 11-55 5-74-15-6-6-13-9-22-9-8 0-15 3-20 9-6 6-9 13-9 21 0 9 3 16 9 21 36 37 91 48 139 28s79-66 79-118V32c0-17-13-30-30-30H160C88 2 30 60 30 132s58 130 130 130h70zM90 132c0-39 31-70 70-70h70v140h-70c-39 0-70-31-70-70z" glyph-name="aring" horiz-adv-x="352" unicode="å"/><glyph d="M148 578c0-23-17-40-40-40s-40 17-40 40 17 40 40 40 40-17 40-40zm160 0c0-23-17-40-40-40s-40 17-40 40 17 40 40 40 40-17 40-40zm10-450C318 56 260-2 188-2S58 56 58 128v2e2c0 72 58 130 130 130s130-58 130-130V128zM188 58c39 0 70 31 70 70v2e2c0 39-31 70-70 70s-70-31-70-70V128c0-39 31-70 70-70z" glyph-name="odieresis" horiz-adv-x="376" unicode="ö"/><glyph d="M302 788c0-47-38-86-86-86s-85 39-85 86 38 85 85 85c48 0 86-38 86-85zm-120 0c0-19 15-35 34-35s35 16 35 35-16 34-35 34-34-15-34-34zM407 36c5-17-4-34-23-39-17-5-34 5-39 22-3 10-6 21-9 33-7 21-14 49-23 84H119c-11-35-16-63-23-84-3-12-6-23-9-33C82 2 66-8 47-3 30 2 20 19 25 36l160 580c4 15 16 24 31 24s27-9 31-24zM295 2e2l-79 288c-21-72-52-189-79-288h158z" glyph-name="Aring" horiz-adv-x="432" unicode="Å"/><glyph d="M296 736c-23 0-42 19-42 42s19 42 42 42 42-19 42-42-19-42-42-42zM136 820c23 0 42-19 42-42s-19-42-42-42-42 19-42 42 19 42 42 42zM407 36c5-17-4-34-23-39-17-5-34 5-39 22-3 10-6 21-9 33-7 21-14 49-23 84H119c-11-35-16-63-23-84-3-12-6-23-9-33C82 2 66-8 47-3 30 2 20 19 25 36l160 580c4 15 16 24 31 24s27-9 31-24zM295 2e2l-79 288c-21-72-52-189-79-288h158z" glyph-name="Adieresis" horiz-adv-x="432" unicode="Ä"/><glyph d="M360 148C360 64 291-4 208-4 124-4 56 64 56 148v340c0 84 68 152 152 152 83 0 152-68 152-152V148zM208 60c48 0 88 39 88 88v340c0 48-40 88-88 88-49 0-88-40-88-88V148c0-49 39-88 88-88zM330 778c0-23-19-42-42-42-24 0-42 19-42 42s18 42 42 42c23 0 42-19 42-42zm-160 0c0-23-19-42-42-42-24 0-42 19-42 42s18 42 42 42c23 0 42-19 42-42z" glyph-name="Odieresis" unicode="Ö"/><glyph d="M230 262v68c0 28-17 52-42 63-27 11-55 5-74-15-6-6-13-9-22-9-8 0-15 3-21 9-5 6-8 13-8 21 0 9 3 16 8 21 37 37 92 48 140 28s79-66 79-118V32c0-17-14-30-30-30H160C88 2 30 60 30 132s58 130 130 130h70zM90 132c0-39 31-70 70-70h70v140h-70c-39 0-70-31-70-70zM220 578c0 23 17 40 40 40s40-17 40-40-17-40-40-40-40 17-40 40zM1e2 538c-23 0-40 17-40 40s17 40 40 40 40-17 40-40-17-40-40-40z" glyph-name="adieresis" horiz-adv-x="352" unicode="ä"/><glyph d="M360 288c0-19-15-32-32-32H88c-19 0-32 13-32 32s13 32 32 32h240c17 0 32-13 32-32z" glyph-name="hyphen" unicode="-"/><glyph d="M115 515c-12-9-29-7-40 5-9 13-7 31 5 40l90 70c12 9 24 9 35 0l90-70c13-9 16-27 5-40-9-12-27-14-40-5l-27 22c-15 12-34 26-45 35l-45-35c-9-7-18-15-28-22zM58 328c0 72 58 130 130 130s130-58 130-130V128C318 56 260-2 188-2S58 56 58 128v2e2zm130 70c-39 0-70-31-70-70V128c0-39 31-70 70-70s70 31 70 70v2e2c0 39-31 70-70 70z" glyph-name="ocircumflex" horiz-adv-x="376" unicode="ô"/><glyph d="M116 518c-11 12-10 31 2 42l1e2 90c12 11 31 10 42-2s10-31-2-42l-1e2-90c-12-11-31-10-42 2zM188-2C116-2 58 56 58 128v2e2c0 72 58 130 130 130s130-58 130-130V128C318 56 260-2 188-2zm0 4e2c-39 0-70-31-70-70V128c0-39 31-70 70-70s70 31 70 70v2e2c0 39-31 70-70 70z" glyph-name="oacute" horiz-adv-x="376" unicode="ó"/><glyph d="M118 606c-13 11-14 30-2 42 11 12 30 13 42 2l1e2-90c12-11 13-30 2-42s-30-13-42-2zM318 128C318 56 260-2 188-2S58 56 58 128v2e2c0 72 58 130 130 130s130-58 130-130V128zM188 58c39 0 70 31 70 70v2e2c0 39-31 70-70 70s-70-31-70-70V128c0-39 31-70 70-70z" glyph-name="ograve" horiz-adv-x="376" unicode="ò"/><glyph d="M122 550c-9-13-27-16-40-8-13 9-16 27-8 40 15 21 34 34 59 38s48-1 68-16l8-6c7-6 15-8 24-6 10 1 17 6 21 14 9 13 27 16 40 8 13-9 17-27 8-40-15-21-34-34-59-38s-48 1-68 16l-8 6c-7 5-15 7-24 6s-16-5-21-14zM318 128C318 56 260-2 188-2S58 56 58 128v2e2c0 72 58 130 130 130s130-58 130-130V128zM188 58c39 0 70 31 70 70v2e2c0 39-31 70-70 70s-70-31-70-70V128c0-39 31-70 70-70z" glyph-name="otilde" horiz-adv-x="376" unicode="õ"/><glyph d="M266 606c9 13 25 16 40 8 13-9 16-27 8-40-15-21-34-34-59-38s-48 1-68 16l-8 6c-7 5-16 7-25 6s-16-6-20-14c-9-13-27-16-40-8-13 9-17 27-8 40 14 21 34 34 59 38 24 4 47-1 68-16l8-6c7-6 15-8 24-6 9 1 16 5 21 14zM3e2-2c-17 0-30 13-30 30v296c0 39-31 70-70 70h-70V28c0-17-14-30-30-30-17 0-30 13-30 30v396c0 17 13 30 30 30h1e2c71 0 130-58 130-130V28c0-17-14-30-30-30z" glyph-name="ntilde" horiz-adv-x="392" unicode="ñ"/><glyph d="M318 128C318 56 260-2 188-2S58 56 58 128v2e2c0 72 58 130 130 130 17 0 33-3 47-9-12 30-28 58-48 84l-43-29c-13-8-31-5-40 8-8 13-5 31 8 40l35 23c-11 11-24 19-37 28s-17 27-8 42c9 13 27 17 42 8 18-12 36-27 54-44l34 23c13 8 31 5 40-8s5-31-8-40l-27-18c13-17 24-35 35-54 31-57 46-119 46-184V128zM188 58c39 0 70 31 70 70v2e2c0 39-31 70-70 70s-70-31-70-70V128c0-39 31-70 70-70z" glyph-name="eth" horiz-adv-x="376" unicode="ð"/><glyph d="M20 538c-23 0-40 17-40 40s17 40 40 40 40-17 40-40-17-40-40-40zm160 0c-23 0-40 17-40 40s17 40 40 40 40-17 40-40-17-40-40-40zM70 428c0 17 13 30 30 30 16 0 30-13 30-30V28c0-17-14-30-30-30-17 0-30 13-30 30v4e2z" glyph-name="idieresis" horiz-adv-x="200" unicode="ï"/><glyph d="M-12 520c-11 13-7 31 5 40l90 70c5 4 11 6 17 6 7 0 13-2 18-6l90-70c13-9 16-27 5-40-11-12-27-14-40-5-10 7-19 15-28 22l-44 35-45-35c-9-7-18-15-28-22-12-9-29-7-40 5zM131 28c0-17-14-30-30-30-17 0-30 13-30 30v4e2c0 17 13 30 30 30 16 0 30-13 30-30V28z" glyph-name="icircumflex" horiz-adv-x="200" unicode="î"/><glyph d="M70 428c0 17 13 30 30 30 16 0 30-13 30-30V28c0-17-14-30-30-30-17 0-30 13-30 30v4e2zM192 648c11-12 10-31-2-42L90 516c-13-11-32-10-43 2s-10 31 3 42l1e2 90c12 11 31 10 42-2z" glyph-name="iacute" horiz-adv-x="200" unicode="í"/><glyph d="M153 518c-11-12-30-13-43-2L10 606c-12 11-13 30-2 42s30 13 43 2l1e2-90c12-11 13-30 2-42zM70 428c0 17 14 30 30 30 17 0 30-13 30-30V28c0-17-13-30-30-30-16 0-30 13-30 30v4e2z" glyph-name="igrave" horiz-adv-x="200" unicode="ì"/><glyph d="M58 328c0 72 59 130 130 130 72 0 130-58 130-130V228c0-17-13-30-30-30H118v-70c0-28 17-54 44-65s56-5 76 15c6 6 13 9 21 9 9 0 16-3 21-9 6-5 9-12 9-21 0-8-3-15-9-21-37-37-93-48-141-28-49 20-81 67-81 120v2e2zm130 70c-39 0-70-31-70-70v-70h140v70c0 39-31 70-70 70zM148 578c0-23-17-40-40-40s-40 17-40 40 17 40 40 40 40-17 40-40zm120-40c-23 0-40 17-40 40s17 40 40 40 40-17 40-40-17-40-40-40z" glyph-name="edieresis" horiz-adv-x="368" unicode="ë"/><glyph d="M70 428c0 17 14 30 30 30 17 0 30-13 30-30V28c0-17-13-30-30-30-16 0-30 13-30 30v4e2z" glyph-name="dotlessi" horiz-adv-x="200" unicode="ı"/><glyph glyph-name="space" horiz-adv-x="192" unicode=" "/><glyph glyph-name="uni0020" horiz-adv-x="192"/><glyph d="M63 328c0 72 58 130 130 130 32 0 60-10 83-30l32 54c8 15 26 18 39 11 15-8 18-26 11-39l-45-77c7-17 10-33 10-49V128C323 56 265-2 193-2c-32 0-60 10-83 30L78-26c-8-15-26-19-39-11-15 8-19 26-11 39l45 76c-7 15-10 32-10 50v2e2zM193 58c39 0 70 31 70 70v163L141 82c13-16 30-24 52-24zm0 340c-39 0-70-31-70-70V165l122 209c-14 16-31 24-52 24z" glyph-name="oslash" horiz-adv-x="386" unicode="ø"/><glyph d="M162 516c-12-11-31-10-42 2s-10 31 2 42l1e2 90c13 11 32 10 43-2s10-31-3-42zM192 2C121 2 62 60 62 132v296c0 17 14 30 30 30 17 0 30-13 30-30V132c0-39 31-70 70-70h70v366c0 17 14 30 30 30 17 0 30-13 30-30V32c0-17-13-30-30-30H192z" glyph-name="uacute" horiz-adv-x="392" unicode="ú"/><glyph d="M120 648c11 12 30 13 42 2l1e2-90c13-11 14-30 3-42-12-12-30-13-43-2l-1e2 90c-12 11-13 30-2 42zM192 2C121 2 62 60 62 132v296c0 17 14 30 30 30 17 0 30-13 30-30V132c0-39 31-70 70-70h70v366c0 17 14 30 30 30 17 0 30-13 30-30V32c0-17-13-30-30-30H192z" glyph-name="ugrave" horiz-adv-x="392" unicode="ù"/><glyph d="M120 515c-13-9-29-7-40 5-11 13-7 31 5 40l90 70c5 4 11 6 17 6 7 0 13-2 18-6l90-70c12-9 16-27 5-40-11-12-28-14-40-5-10 7-19 15-28 22-15 12-34 26-45 35l-44-35c-9-7-18-15-28-22zM62 428c0 17 14 30 30 30 17 0 30-13 30-30V132c0-39 31-70 70-70h70v366c0 17 14 30 30 30 17 0 30-13 30-30V32c0-17-13-30-30-30H192C121 2 62 60 62 132v296z" glyph-name="ucircumflex" horiz-adv-x="392" unicode="û"/><glyph d="M72 578c0 23 17 40 40 40s40-17 40-40-17-40-40-40-40 17-40 40zm160 0c0 23 17 40 40 40s40-17 40-40-17-40-40-40-40 17-40 40zM192 2C121 2 62 60 62 132v296c0 17 14 30 30 30 17 0 30-13 30-30V132c0-39 31-70 70-70h70v366c0 17 14 30 30 30 17 0 30-13 30-30V32c0-17-13-30-30-30H192z" glyph-name="udieresis" horiz-adv-x="392" unicode="ü"/><glyph d="M112 518c-11 12-10 31 2 42l1e2 90c13 11 32 10 43-2s10-31-2-42l-1e2-90c-13-11-32-10-43 2zm73-386 91 305c5 15 21 24 37 20 16-5 25-22 20-38L213 19l-38-128c-8-28-24-50-47-67s-49-26-78-26c-16 0-30 13-30 30s14 30 30 30c31 0 58 19 67 50l36 120L36 419c-5 16 4 33 20 38 16 4 33-5 37-20z" glyph-name="yacute" horiz-adv-x="369" unicode="ý"/><glyph d="M130-172c0-17-13-30-30-30s-30 13-30 30v8e2c0 17 13 30 30 30s30-13 30-30V458h70c72 0 130-58 130-130V128C330 56 272-2 2e2-2h-70v-170zm0 570V58h70c39 0 70 31 70 70v2e2c0 39-31 70-70 70h-70z" glyph-name="thorn" horiz-adv-x="388" unicode="þ"/><glyph d="M139 8C90 28 58 75 58 128v2e2c0 72 59 130 130 130 72 0 130-58 130-130V228c0-17-13-30-30-30H118v-70c0-28 17-54 44-65s56-5 76 15c6 6 13 9 21 9 9 0 16-3 21-9 6-5 9-12 9-21 0-8-3-15-9-21-37-37-93-48-141-28zm49 390c-39 0-70-31-70-70v-70h140v70c0 39-31 70-70 70zM116 515c-13-9-31-7-40 5-11 13-8 31 5 40l90 70c5 4 11 6 17 6 7 0 13-2 18-6l90-70c12-9 14-27 5-40-11-12-28-14-40-5-10 7-19 15-28 22-15 12-34 26-45 35l-44-35c-9-7-18-15-28-22z" glyph-name="ecircumflex" horiz-adv-x="368" unicode="ê"/><glyph d="M280 36C243-1 187-12 138 8 90 28 58 75 58 128v2e2c0 72 59 130 130 130 72 0 130-58 130-130V228c0-17-13-30-30-30H118v-70c0-28 16-54 43-65s57-5 77 15c5 6 12 9 20 9 9 0 16-3 22-9 6-5 9-12 9-21 0-8-3-15-9-21zM188 398c-39 0-70-31-70-70v-70h140v70c0 39-31 70-70 70zm70 162c13-11 14-30 2-42-11-12-30-13-42-2l-1e2 90c-12 11-13 30-2 42s30 13 42 2z" glyph-name="egrave" horiz-adv-x="368" unicode="è"/><glyph d="M138 448c49 20 105 9 142-28 6-6 9-13 9-22 0-8-3-15-9-21-6-5-13-8-22-8-8 0-15 3-20 8-20 21-50 27-77 16s-43-37-43-65V128c0-28 16-54 43-65 10-3 19-5 26-5h1 1c18 0 34 7 49 20 5 6 12 9 20 9 9 0 16-3 22-9 6-5 9-12 9-21 0-8-3-15-9-21-17-17-37-28-62-35v-34c0-39-20-76-55-96-15-8-33-4-41 11s-4 33 11 41c16 9 25 25 25 44V1c-7 2-14 4-20 7-48 20-80 67-80 120v2e2c0 53 32 1e2 80 120z" glyph-name="ccedilla" unicode="ç"/><glyph d="M139 8C90 28 58 75 58 128v2e2c0 72 59 130 130 130 72 0 130-58 130-130V228c0-17-13-30-30-30H118v-70c0-28 16-54 43-65s57-5 77 15c5 6 12 9 20 9 9 0 16-3 22-9 6-5 9-12 9-21 0-8-3-15-9-21-37-37-93-48-141-28zm49 390c-39 0-70-31-70-70v-70h140v70c0 39-31 70-70 70zm30 252c13 11 31 10 43-2 11-12 10-31-3-42l-1e2-90c-12-11-31-10-42 2s-10 31 2 42z" glyph-name="eacute" horiz-adv-x="368" unicode="é"/><glyph d="M261 45c-13-17-30-29-51-37-48-20-104-9-141 28-39 37-49 93-28 142 20 48 67 80 120 80h70v70c0 28-16 54-43 65s-57 5-77-16c-5-5-12-8-21-8-8 0-15 3-21 8-6 6-9 13-9 21 0 9 3 16 9 22 37 37 93 48 141 28 21-8 38-20 51-37 24 29 60 47 1e2 47 71 0 130-58 130-130V228c0-17-14-30-30-30H291v-70c0-28 16-54 43-65s56-5 76 15c6 6 13 9 21 9 9 0 16-3 22-9 5-5 8-12 8-21 0-8-3-15-8-21-39-37-93-48-142-28-20 8-37 20-50 37zm30 213h140v70c0 39-31 70-70 70s-70-31-70-70v-70zM111 78c20-20 50-26 77-15s43 37 43 65v70h-70c-29 0-54-16-65-43s-5-56 15-77z" glyph-name="ae" horiz-adv-x="541" unicode="æ"/><glyph d="M160 2C88 2 30 60 30 132s58 130 130 130h70v68c0 28-17 52-42 63-27 11-55 5-74-15-6-6-13-9-22-9-8 0-15 3-21 9-5 6-8 13-8 21 0 9 3 16 8 21 37 37 92 48 140 28s79-66 79-118V32c0-17-13-30-30-30H160zm0 2e2c-39 0-70-31-70-70s31-70 70-70h70v140h-70zM286 614c13-9 16-27 8-40-15-21-34-34-59-38s-48 1-68 16l-8 6c-7 5-15 7-24 6s-16-5-21-14c-9-13-27-16-40-8-13 9-16 27-8 40 15 21 34 34 59 38s48-1 68-16l8-6c7-6 15-8 24-6 9 1 16 5 21 14 9 13 27 16 40 8z" glyph-name="atilde" horiz-adv-x="352" unicode="ã"/><glyph d="M230 262v68c0 28-17 52-42 63-27 11-55 5-74-15-6-6-13-9-22-9-8 0-15 3-21 9-5 6-8 13-8 21 0 9 3 16 8 21 37 37 92 48 140 28s79-66 79-118V32c0-17-14-30-30-30H160C88 2 30 60 30 132s58 130 130 130h70zM90 132c0-39 31-70 70-70h70v140h-70c-39 0-70-31-70-70zm72 498c12 9 24 9 35 0l90-70c13-9 16-27 5-40-9-12-27-14-40-5l-27 22c-15 12-34 26-45 35l-45-35c-9-7-18-15-28-22-12-9-29-7-40 5-9 13-7 31 5 40z" glyph-name="acircumflex" horiz-adv-x="352" unicode="â"/><glyph d="M290 32c0-17-14-30-30-30H160C88 2 30 60 30 132s58 130 130 130h70v68c0 28-17 52-42 63-27 11-55 5-74-15-6-6-13-9-22-9-8 0-15 3-21 9-5 6-8 13-8 21 0 9 3 16 8 21 37 37 92 48 140 28s79-66 79-118V32zM90 132c0-39 31-70 70-70h70v140h-70c-39 0-70-31-70-70zm60 384c-13-11-31-10-43 2-11 12-10 31 3 42l1e2 90c12 11 31 10 42-2s10-31-2-42z" glyph-name="aacute" horiz-adv-x="352" unicode="á"/><glyph d="M160 2C88 2 30 60 30 132s58 130 130 130h70v68c0 28-17 52-42 63-27 11-55 5-74-15-6-6-13-9-22-9-8 0-15 3-21 9s-9 13-9 21c0 9 3 16 9 21 37 37 92 48 140 28s79-66 79-118V32c0-17-14-30-30-30H160zm0 2e2c-39 0-70-31-70-70s31-70 70-70h70v140h-70zm90 358c12-11 13-30 2-42s-30-13-42-2l-1e2 90c-13 11-14 30-3 42s30 13 43 2z" glyph-name="agrave" horiz-adv-x="352" unicode="à"/><glyph d="M370 148C370 65 303-2 220-2c-17 0-30 13-30 30s13 30 30 30c51 0 90 39 90 90v160c0 51-39 90-90 90-15 0-27 9-30 24s5 27 18 34l19 7c24 11 40 31 43 58s-10 50-31 65c-23 15-49 16-72 4-23-13-37-35-37-62V28c0-17-14-30-30-30-17 0-30 13-30 30v5e2c0 48 26 92 69 115s93 20 133-7c36-24 58-65 58-108 0-5 0-10-1-13-3-30-15-56-35-77 45-27 76-74 76-130V148z" glyph-name="uni00DF" horiz-adv-x="428" unicode="ß"/><glyph d="M305 578c0-23-17-40-40-40s-40 17-40 40 17 40 40 40 40-17 40-40zM105 538c-23 0-40 17-40 40s17 40 40 40 40-17 40-40-17-40-40-40zm70-647c-8-28-24-50-47-67s-49-26-78-26c-16 0-30 13-30 30s14 30 30 30c31 0 58 19 67 50l36 120L36 419c-5 16 4 33 20 38 16 4 33-5 37-20l92-305 91 305c5 15 21 24 37 20 16-5 25-22 20-38L213 19z" glyph-name="ydieresis" horiz-adv-x="369" unicode="ÿ"/><glyph d="M288 45C264 16 228-2 188-2 116-2 58 56 58 128v2e2c0 72 58 130 130 130 40 0 76-18 1e2-47 24 29 60 47 1e2 47 71 0 130-58 130-130V228c0-17-14-30-30-30H318v-70c0-28 16-54 43-65s56-5 76 15c6 6 13 9 21 9 9 0 16-3 22-9 5-5 8-12 8-21 0-8-3-15-8-21-39-37-93-48-142-28-20 8-37 20-50 37zM388 398c-39 0-70-31-70-70v-70h140v70c0 39-31 70-70 70zM188 58c39 0 70 31 70 70v2e2c0 39-31 70-70 70s-70-31-70-70V128c0-39 31-70 70-70z" glyph-name="oe" horiz-adv-x="568" unicode="œ"/><glyph d="M222 778c0-23-19-42-42-42s-42 19-42 42 19 42 42 42 42-19 42-42zM20 736c-23 0-42 19-42 42s19 42 42 42 42-19 42-42-19-42-42-42zM1e2-4C81-4 68 9 68 28v580c0 19 13 32 32 32s32-13 32-32V28c0-19-13-32-32-32z" glyph-name="Idieresis" horiz-adv-x="200" unicode="Ï"/><glyph d="M214 719c-11-13-28-16-43-5l-27 21c-15 11-33 25-44 34l-45-34-26-21c-15-11-32-8-43 5-11 15-8 32 5 43l90 70c5 5 12 7 19 7s14-2 19-7l90-70c13-11 16-28 5-43zM68 608c0 19 13 32 32 32s32-13 32-32V28c0-19-13-32-32-32S68 9 68 28v580z" glyph-name="Icircumflex" horiz-adv-x="200" unicode="Î"/><glyph d="M171 762c13-12 15-32 3-45-12-15-32-15-45-3L29 804c-15 12-15 32-3 45s32 15 45 3zM132 28c0-19-13-32-32-32S68 9 68 28v580c0 19 13 32 32 32s32-13 32-32V28z" glyph-name="Igrave" horiz-adv-x="200" unicode="Ì"/><glyph d="M68 608c0 19 13 32 32 32s32-13 32-32V28c0-19-13-32-32-32S68 9 68 28v580zM26 717c-12 13-12 33 3 45l1e2 90c13 12 33 10 45-3s10-33-3-45L71 714c-13-12-33-12-45 3z" glyph-name="Iacute" horiz-adv-x="200" unicode="Í"/><glyph d="M93 639c15 3 29-4 36-17l82-169 137-285v440c0 19 15 32 32 32 19 0 32-13 32-32V28c0-15-10-28-25-31-15-4-29 4-36 17l-81 169-138 285V28c0-19-13-32-32-32C83-4 68 9 68 28v580c0 15 10 28 25 31zm40 102c-15 9-19 27-8 42 13 22 33 35 60 39 24 4 50-2 69-17l8-6c7-5 15-7 23-5 8 1 15 5 20 13 9 15 27 19 42 8 15-9 18-27 9-42-15-22-35-35-60-39-26-4-49 2-70 17l-8 6c-7 4-15 6-23 5s-14-6-19-13c-11-15-28-19-43-8z" glyph-name="Ntilde" horiz-adv-x="480" unicode="Ñ"/><glyph d="M132 572V360h148c19 0 32-13 32-32s-13-32-32-32H132V64h168c19 0 32-13 32-32S319 0 3e2.0H1e2C81 0 68 13 68 32v572c0 19 13 32 32 32h2e2c19 0 32-13 32-32s-13-32-32-32H132zM238 778c0 23 19 42 42 42s42-19 42-42-19-42-42-42-42 19-42 42zM78 778c0 23 19 42 42 42s42-19 42-42-19-42-42-42-42 19-42 42z" glyph-name="Edieresis" horiz-adv-x="368" unicode="Ë"/><glyph d="M332 32c0-19-15-32-32-32H1e2C81 0 68 13 68 32v572c0 19 13 32 32 32h2e2c17 0 32-13 32-32s-15-32-32-32H132V360h148c17 0 32-13 32-32s-15-32-32-32H132V64h168c17 0 32-13 32-32zM86 719c-11 15-8 32 5 43l90 70c5 5 11 7 18 7s14-2 19-7l90-70c15-11 17-28 6-43-11-13-30-16-43-5l-27 21c-15 11-33 25-44 34l-45-34-27-21c-13-11-31-8-42 5z" glyph-name="Ecircumflex" horiz-adv-x="368" unicode="Ê"/><glyph d="M332 32c0-19-15-32-32-32H1e2C81 0 68 13 68 32v572c0 19 13 32 32 32h2e2c17 0 32-13 32-32s-15-32-32-32H132V360h148c17 0 32-13 32-32s-15-32-32-32H132V64h168c17 0 32-13 32-32zM128 804c-13 12-14 32-2 45s32 15 45 3l1e2-90c13-12 14-32 2-45-11-15-32-15-45-3z" glyph-name="Egrave" horiz-adv-x="368" unicode="È"/><glyph d="M132 572V360h148c17 0 32-13 32-32s-15-32-32-32H132V64h168c17 0 32-13 32-32S317 0 3e2.0H1e2C81 0 68 13 68 32v572c0 19 13 32 32 32h2e2c17 0 32-13 32-32s-15-32-32-32H132zm96 280c13 12 34 10 45-3 12-13 11-33-2-45l-1e2-90c-13-12-33-12-45 3-12 13-11 33 2 45z" glyph-name="Eacute" horiz-adv-x="368" unicode="É"/><glyph d="M168 1C101 20 56 79 56 148v340c0 69 45 128 112 147s136-12 171-71l10-17c9-16 4-35-12-44-15-9-34-4-43 12l-10 17c-20 35-60 52-99 41s-65-45-65-85V148c0-40 26-74 65-85s79 6 99 41l10 17c9 16 28 21 43 12 16-9 21-28 12-44l-10-17c-23-39-59-64-99-73v-34c0-40-22-77-57-97-15-9-34-4-43 11-9 16-4 35 12 44 15 9 24 25 24 42v34c-1 1-3 1-4 1s-3 0-4 1z" glyph-name="Ccedilla" horiz-adv-x="394" unicode="Ç"/><glyph d="M380 572V360h148c19 0 32-13 32-32s-13-32-32-32H380V64h168c19 0 32-13 32-32S567 0 548 0H348c-17 0-32 13-32 32v104H132L93 49c-6-12-11-23-15-34C70-1 51-8 35-1S12 25 19 41l258 576c5 13 15 19 30 19h241c19 0 32-13 32-32s-13-32-32-32H380zM316 2e2v348L161 2e2h155z" glyph-name="AE" horiz-adv-x="617" unicode="Æ"/><glyph d="M152 749c-11-15-28-19-43-8-15 9-17 27-8 42 15 22 35 35 60 39 24 4 50-2 70-17l8-6c7-5 14-7 22-5 8 1 15 5 20 13 9 15 27 19 42 8 15-9 18-27 9-42-15-22-35-35-60-39-26-4-49 2-70 17l-8 6c-7 4-15 6-23 5s-14-6-19-13zM407 36c5-17-4-34-23-39-17-5-34 5-39 22-3 10-6 21-9 33-7 21-14 49-23 84H119c-11-35-16-63-23-84-3-12-6-23-9-33C82 2 66-8 47-3 30 2 20 19 25 36l160 580c4 15 16 24 31 24s27-9 31-24zM295 2e2l-79 288c-21-72-52-189-79-288h158z" glyph-name="Atilde" horiz-adv-x="432" unicode="Ã"/><glyph d="M197 832c5 5 12 7 19 7s14-2 19-7l90-70c13-11 16-28 5-43-11-13-28-16-43-5l-27 21c-15 11-32 25-44 34-12-9-29-23-44-34l-27-21c-13-11-32-8-43 5-11 15-8 32 5 43zM407 36c5-17-4-34-23-39-17-5-34 5-39 22-3 10-6 21-9 33-7 21-14 49-23 84H119c-11-35-16-63-23-84-3-12-6-23-9-33C82 2 66-8 47-3 30 2 20 19 25 36l160 580c4 15 16 24 31 24s27-9 31-24zM295 2e2l-79 288c-21-72-52-189-79-288h158z" glyph-name="Acircumflex" horiz-adv-x="432" unicode="Â"/><glyph d="M142 849c12 13 32 15 45 3l1e2-90c13-12 15-32 3-45-12-15-32-15-45-3l-1e2 90c-15 12-15 32-3 45zM407 36c5-17-4-34-23-39-17-5-34 5-39 22-3 10-6 21-9 33-7 21-14 49-23 84H119c-11-35-16-63-23-84-3-12-6-23-9-33C82 2 66-8 47-3 30 2 20 19 25 36l160 580c4 15 16 24 31 24s27-9 31-24zM295 2e2l-79 288c-21-72-52-189-79-288h158z" glyph-name="Agrave" horiz-adv-x="432" unicode="À"/><glyph d="M245 852c13 12 33 10 45-3s12-33-3-45l-1e2-90c-13-12-33-12-45 3-12 13-12 33 3 45zM407 36c5-17-4-34-23-39-17-5-34 5-39 22-3 10-6 21-9 33-7 21-14 49-23 84H119c-11-35-16-63-23-84-3-12-6-23-9-33C82 2 66-8 47-3 30 2 20 19 25 36l160 580c4 15 16 24 31 24s27-9 31-24zM295 2e2l-79 288c-21-72-52-189-79-288h158z" glyph-name="Aacute" horiz-adv-x="432" unicode="Á"/><glyph d="M208-4C124-4 56 64 56 148v340c0 84 68 152 152 152 33 0 64-10 89-29 3 15 16 25 31 25h2e2c17 0 32-13 32-32s-15-32-32-32H360V468 360h148c17 0 32-13 32-32s-15-32-32-32H360V168 64h168c17 0 32-13 32-32S545 0 528 0H328c-15 0-28 10-31 25-25-19-56-29-89-29zm0 580c-49 0-88-40-88-88V148c0-49 39-88 88-88 48 0 88 39 88 88v20 3e2 20c0 48-40 88-88 88z" glyph-name="OE" horiz-adv-x="596" unicode="Œ"/><glyph d="M360 148C360 64 292-4 208-4 125-4 56 64 56 148v340c0 84 69 152 152 152 84 0 152-68 152-152V148zm-240 0c0-49 40-88 88-88 49 0 88 39 88 88v340c0 48-39 88-88 88-48 0-88-40-88-88V148zm15 569c-12 13-11 33 2 45l1e2 90c13 12 33 10 45-3s11-33-2-45l-1e2-90c-13-12-34-12-45 3z" glyph-name="Oacute" unicode="Ó"/><glyph d="M360 148C360 64 292-4 208-4S56 64 56 148v340c0 84 68 152 152 152s152-68 152-152V148zM208 60c49 0 88 39 88 88v340c0 48-39 88-88 88-48 0-88-40-88-88V148c0-49 40-88 88-88zM134 849c12 13 33 15 46 3l1e2-90c13-12 14-32 2-45-12-15-32-15-45-3l-1e2 90c-13 12-14 32-3 45z" glyph-name="Ograve" unicode="Ò"/><glyph d="M360 148C360 64 292-4 208-4 125-4 56 64 56 148v340c0 84 69 152 152 152 84 0 152-68 152-152V148zm-240 0c0-49 40-88 88-88 49 0 88 39 88 88v340c0 48-39 88-88 88-48 0-88-40-88-88V148zm17 566c-13-11-32-8-43 5-11 15-9 32 6 43l90 70c5 5 11 7 18 7s14-2 19-7l90-70c15-11 17-28 6-43-11-13-30-16-43-5l-27 21-45 34c-12-9-29-23-44-34z" glyph-name="Ocircumflex" unicode="Ô"/><glyph d="M360 148C360 64 291-4 208-4 124-4 56 64 56 148v340c0 84 68 152 152 152 83 0 152-68 152-152V148zM208 60c48 0 88 39 88 88v340c0 48-40 88-88 88-49 0-88-40-88-88V148c0-49 39-88 88-88zM92 783c15 22 35 35 60 39 26 4 49-2 70-17l8-6c7-5 15-7 23-5 8 1 14 6 19 13 11 15 28 19 43 8 15-9 17-27 8-42-15-22-35-35-60-39-24-4-50 2-70 17l-8 6c-7 5-14 6-22 5s-15-5-20-13c-9-15-27-19-42-8-15 9-18 27-9 42z" glyph-name="Otilde" unicode="Õ"/><glyph d="M407 675c15-8 21-27 13-42l-60-108c3-13 5-26 5-37V148C365 64 297-4 213-4c-45 0-86 20-113 51L60-27c-9-15-27-20-42-12S-2-12 6 3l59 108c-3 11-4 23-4 37v340c0 84 68 152 152 152 45 0 85-20 113-51l40 74c8 15 26 20 41 12zM213 576c-49 0-88-40-88-88V220l167 307c-15 29-44 49-79 49zm0-516c48 0 88 39 88 88v268L134 109c15-29 44-49 79-49z" glyph-name="Oslash" horiz-adv-x="426" unicode="Ø"/><glyph d="M364 148C364 64 296-4 212-4S60 64 60 148v460c0 19 13 32 32 32s32-13 32-32V148c0-49 39-88 88-88 48 0 88 39 88 88v460c0 19 13 32 32 32s32-13 32-32V148zM183 714c-13-12-33-12-45 3-12 13-12 33 3 45l1e2 90c13 12 33 10 45-3s10-33-3-45z" glyph-name="Uacute" horiz-adv-x="424" unicode="Ú"/><glyph d="M212-4C128-4 60 64 60 148v460c0 19 13 32 32 32s32-13 32-32V148c0-49 39-88 88-88 48 0 88 39 88 88v460c0 19 13 32 32 32s32-13 32-32V148C364 64 296-4 212-4zm71 766c13-12 14-32 3-45-12-15-31-15-46-3l-1e2 90c-13 12-14 32-2 45s32 15 45 3z" glyph-name="Ugrave" horiz-adv-x="424" unicode="Ù"/><glyph d="M60 608c0 19 15 32 32 32 19 0 32-13 32-32V148c0-49 40-88 88-88 49 0 88 39 88 88v460c0 19 15 32 32 32 19 0 32-13 32-32V148C364 64 296-4 212-4 129-4 60 64 60 148v460zM321 762c13-11 16-28 5-43-11-13-29-16-42-5l-27 21-45 34c-12-9-29-23-44-34l-27-21c-13-11-32-8-43 5-11 15-9 32 6 43l90 70c5 5 11 7 18 7s14-2 19-7z" glyph-name="Ucircumflex" horiz-adv-x="424" unicode="Û"/><glyph d="M212-4C129-4 60 64 60 148v460c0 19 15 32 32 32 19 0 32-13 32-32V148c0-49 40-88 88-88 49 0 88 39 88 88v460c0 19 15 32 32 32 19 0 32-13 32-32V148C364 64 296-4 212-4zm38 782c0 23 19 42 42 42 24 0 42-19 42-42s-18-42-42-42c-23 0-42 19-42 42zM132 736c-23 0-42 19-42 42s19 42 42 42c24 0 42-19 42-42s-18-42-42-42z" glyph-name="Udieresis" horiz-adv-x="424" unicode="Ü"/><glyph d="M201 4e2c19 36 45 91 69 138 13 27 28 55 43 84 8 16 27 22 43 15 15-8 22-28 14-43L233 320V28c0-19-13-32-32-32-17 0-32 13-32 32v292L33 594c-8 15-2 35 14 43 16 7 35 1 43-15zM173 714c-15-12-34-12-46 3-11 13-10 33 3 45l1e2 90c13 12 33 10 45-3s11-33-2-45z" glyph-name="Yacute" horiz-adv-x="402" unicode="Ý"/><glyph d="M312 622c8 16 27 22 43 15 15-8 22-28 14-43L232 320V28c0-19-13-32-32-32-17 0-32 13-32 32v292L32 594c-8 15-2 35 14 43 16 7 35 1 43-15l111-222 70 138zM238 778c0 23 19 42 42 42 24 0 42-19 42-42s-18-42-42-42c-23 0-42 19-42 42zM120 736c-23 0-42 19-42 42s19 42 42 42c24 0 42-19 42-42s-18-42-42-42z" glyph-name="Ydieresis" horiz-adv-x="402" unicode="Ÿ"/><glyph d="M81 604c0 19 15 32 32 32h120c84 0 152-68 152-152V152C385 68 317 0 233 0H113C96 0 81 13 81 32v265H33c-16 0-30 14-30 31s14 30 30 30h48v246zM321 484c0 48-39 88-88 88h-88V358h68c17 0 31-13 31-30s-14-31-31-31h-68V64h88c49 0 88 39 88 88v332z" glyph-name="Eth" horiz-adv-x="441" unicode="Ð"/><glyph d="M220 510c83 0 152-68 152-152v-60c0-84-69-152-152-152h-88V28c0-19-15-32-32-32C81-4 68 9 68 28v576c0 19 13 32 32 32 17 0 32-13 32-32v-94h88zm0-3e2c48 0 88 39 88 88v60c0 48-40 88-88 88h-88V210h88z" glyph-name="Thorn" horiz-adv-x="400" unicode="Þ"/><glyph d="M402 626c9-13 18-26 27-38 15-23 33-48 48-68 15 20 33 45 48 68 9 12 18 25 27 38 9 11 21 15 35 11 12-4 21-16 21-29V308c0-17-14-31-31-31s-30 14-30 31v205c-11-16-23-31-31-43l-14-20c-7-9-15-13-25-13s-18 4-25 13c-5 6-9 13-14 20l-30 43V308c0-17-14-31-31-31s-30 14-30 31v3e2c0 13 8 25 21 29s25 0 34-11zM157 277c-17 0-30 14-30 31v265H57c-17 0-30 14-30 31s13 30 30 30h2e2c17 0 31-13 31-30s-14-31-31-31h-69V308c0-17-14-31-31-31z" glyph-name="trademark" horiz-adv-x="670" unicode="™"/><glyph d="M347 436c-23-7-37-25-37-48V248c0-23 14-41 37-48 21-7 44 4 55 23 9 15 27 20 42 11 15-8 20-26 11-41-25-44-76-65-124-52s-82 56-82 107v140c0 51 34 94 82 107s99-9 124-52c9-15 4-33-11-41-15-9-33-4-42 11-11 19-34 30-55 23zM680 318c0-87-33-166-94-227C526 31 446-3 359-3c-85 0-166 34-226 94-61 61-94 140-94 227s33 166 94 227c60 60 141 93 226 93 87 0 167-33 227-93 61-61 94-140 94-227zM359 58c71 0 135 27 184 76s76 115 76 184-27 134-76 183-113 76-184 76c-69 0-134-27-183-76s-76-114-76-183 27-135 76-184 114-76 183-76z" glyph-name="copyright" horiz-adv-x="718" unicode="©"/><glyph d="M289 137c-16 0-30 14-30 31v296c0 17 14 30 30 30h80c60 0 111-49 111-110 0-44-25-80-62-99l58-102c8-15 4-33-11-42-15-8-34-3-42 12l-69 120h-34V168c0-17-14-31-31-31zM419 384c0 27-22 49-50 49h-49v-99h49c28 0 50 23 50 50zM39 318c0 87 33 166 94 227 60 60 141 93 226 93 87 0 167-33 227-93 61-61 94-140 94-227s-33-166-94-227C526 31 446-3 359-3c-85 0-166 34-226 94-61 61-94 140-94 227zM359 577c-69 0-134-27-183-76s-76-114-76-183 27-135 76-184 114-76 183-76c71 0 135 27 184 76s76 115 76 184-27 134-76 183-113 76-184 76z" glyph-name="registered" horiz-adv-x="718" unicode="®"/><glyph d="M218 558c-21 16-45 21-71 16s-46-19-59-42c-9-15-28-21-44-12-15 9-20 29-11 44 23 39 58 64 101 73s87-1 122-28 57-67 60-110c3-44-13-87-44-118l-50-51c-17-17-26-38-26-62v-80c0-19-13-32-32-32-17 0-32 13-32 32v80c0 40 16 78 44 107l51 51c19 19 27 41 25 68-3 25-14 49-34 64zM206 38c0-23-19-42-42-42s-42 19-42 42 19 42 42 42 42-19 42-42z" glyph-name="question" horiz-adv-x="357" unicode="?"/><glyph d="M1e2-4C77-4 58 15 58 38s19 42 42 42 42-19 42-42-19-42-42-42zM68 588c0 19 15 32 32 32 19 0 32-13 32-32V188c0-19-13-32-32-32-17 0-32 13-32 32v4e2z" glyph-name="exclam" horiz-adv-x="200" unicode="!"/><glyph d="M150 418c0 23 19 42 42 42s42-19 42-42-19-42-42-42-42 19-42 42zM1e2-153C65-126 44-86 41-43 38 1 53 44 84 75l51 51c17 18 25 39 25 62v80c0 19 15 32 32 32 19 0 32-13 32-32v-80c0-40-15-78-44-107l-50-51c-19-19-27-41-25-68 1-27 13-48 34-64s45-21 71-16c24 5 46 19 59 42 8 15 28 20 43 12 16-9 21-29 12-44-23-39-59-65-102-73-43-9-87 1-122 28z" glyph-name="questiondown" horiz-adv-x="357" unicode="¿"/><glyph d="M1e2 460c23 0 42-19 42-42s-19-42-42-42-42 19-42 42 19 42 42 42zm0-160c19 0 32-13 32-32v-4e2c0-19-13-32-32-32-17 0-32 13-32 32v4e2c0 19 15 32 32 32z" glyph-name="exclamdown" horiz-adv-x="200" unicode="¡"/><glyph d="M128 381c56 0 99-46 99-99 0-56-43-99-99-99-55 0-98 43-98 99 0 53 44 99 98 99zm0-140c23 0 42 18 42 41s-19 41-42 41-41-18-41-41 18-41 41-41z" glyph-name="bullet" horiz-adv-x="256" unicode="•"/><glyph d="M92-76c-16-7-33 1-40 16-7 16 1 33 16 40 9 3 13 10 13 20v17h-1c-17 0-31 14-31 31s14 30 31 30h32c17 0 30-13 30-30V0c0-33-19-63-50-76zM248-20c9 3 13 10 13 20v17h-1c-17 0-31 14-31 31s14 30 31 30h32c17 0 30-13 30-30V0c0-33-19-63-50-76-16-7-33 1-40 16-7 16 1 33 16 40z" glyph-name="quotedblbase" horiz-adv-x="372" unicode="„"/><glyph d="M303 580c-9-5-13-11-13-20v-18h1c17 0 31-13 31-30s-14-31-31-31h-32c-17 0-30 14-30 31v48c0 33 19 63 50 76 16 7 33-1 40-16 7-16-1-33-16-40zm-180 0c-9-5-13-11-13-20v-18h1c17 0 31-13 31-30s-14-31-31-31H79c-17 0-30 14-30 31v48c0 33 19 63 50 76 16 7 33-1 40-16 7-16-1-33-16-40z" glyph-name="quotedblleft" horiz-adv-x="371" unicode="“"/><glyph d="M68 536c9 3 14 10 14 20v17h-2c-17 0-30 14-30 31s13 30 30 30h32c17 0 31-13 31-30v-48c0-33-20-63-51-76-16-7-33 1-40 16-7 16 1 33 16 40zm162 68c0 17 13 30 30 30h32c17 0 31-13 31-30v-48c0-33-20-63-51-76-16-7-33 1-40 16-7 16 1 33 16 40 9 3 14 10 14 20v17h-2c-17 0-30 14-30 31z" glyph-name="quotedblright" horiz-adv-x="372" unicode="”"/><glyph d="M256 640c19 0 32-13 32-32V508c0-19-13-32-32-32s-32 13-32 32v1e2c0 19 13 32 32 32zM64 608c0 19 13 32 32 32s32-13 32-32V508c0-19-13-32-32-32s-32 13-32 32v1e2z" glyph-name="quotedbl" horiz-adv-x="352" unicode='"'/><glyph d="M112 78c16 0 30-13 30-30V0c0-33-20-63-51-76-15-7-33 1-40 16-7 16 1 33 17 40 9 3 13 10 13 20v17h-1c-17 0-31 14-31 31s14 30 31 30h32z" glyph-name="quotesinglbase" horiz-adv-x="191" unicode="‚"/><glyph d="M123 580c-9-5-13-11-13-20v-18h2c16 0 30-13 30-30s-14-31-30-31H80c-17 0-31 14-31 31v48c0 33 20 63 51 76 15 7 33-1 40-16 7-16-1-33-17-40z" glyph-name="quoteleft" horiz-adv-x="192" unicode="‘"/><glyph d="M68 536c9 3 13 10 13 20v17h-1c-17 0-31 14-31 31s14 30 31 30h32c16 0 30-13 30-30v-48c0-33-20-63-51-76-15-7-33 1-40 16-7 16 1 33 17 40z" glyph-name="quoteright" horiz-adv-x="192" unicode="’"/><glyph d="M128 508c0-19-15-32-32-32-19 0-32 13-32 32v1e2c0 19 13 32 32 32 17 0 32-13 32-32V508z" glyph-name="quotesingle" horiz-adv-x="192" unicode="'"/><glyph d="M54 388c0 23 19 42 42 42s42-19 42-42-19-42-42-42-42 19-42 42z" glyph-name="periodcentered" horiz-adv-x="192" unicode="·"/><glyph d="M112 78c17 0 31-13 31-30V0c0-33-20-63-51-76-16-7-33 1-40 16-7 16 1 33 16 40 9 3 14 10 14 20v17h-2c-17 0-30 14-30 31s13 30 30 30h32zM96 376c-23 0-42 19-42 42s19 42 42 42 42-19 42-42-19-42-42-42z" glyph-name="semicolon" horiz-adv-x="192" unicode=";"/><glyph d="M138 38c0-23-18-42-42-42-23 0-42 19-42 42s19 42 42 42c24 0 42-19 42-42zM96 460c24 0 42-19 42-42s-18-42-42-42c-23 0-42 19-42 42s19 42 42 42z" glyph-name="colon" horiz-adv-x="192" unicode=":"/><glyph d="M68-20c9 3 14 10 14 20v17h-2c-17 0-30 14-30 31s13 30 30 30h32c17 0 31-13 31-30V0c0-33-20-63-51-76-16-7-33 1-40 16-7 16 1 33 16 40z" glyph-name="comma" horiz-adv-x="192" unicode=","/><glyph d="M88 80c24 0 42-19 42-42S112-4 88-4C65-4 46 15 46 38s19 42 42 42zM330 38c0-23-18-42-42-42-23 0-42 19-42 42s19 42 42 42c24 0 42-19 42-42zm116 0c0 23 19 42 42 42 24 0 42-19 42-42S512-4 488-4c-23 0-42 19-42 42z" glyph-name="ellipsis" horiz-adv-x="576" unicode="…"/><glyph d="M239 168c0 3 1 8 4 15 9 16 18 31 25 45 13 24 28 52 35 64-7 11-21 36-33 59l-23 42c-3 5-4 10-4 15 0 13 6 22 17 28 15 9 35 3 43-13l64-116c6-11 6-21 0-31l-68-123c-8-16-28-22-43-13-11 6-17 15-17 28zM59 168c0 3 1 8 4 15 9 16 18 31 25 45 13 24 28 52 35 64-7 11-21 36-33 59l-23 42c-3 5-4 10-4 15 0 13 6 22 17 28 15 9 35 3 43-13l64-116c6-11 6-21 0-31l-68-123c-8-16-28-22-43-13-11 6-17 15-17 28z" glyph-name="guillemotright" horiz-adv-x="419" unicode="»"/><glyph d="M356 408c0-7-1-12-4-15l-23-42c-12-23-25-48-32-59 7-12 21-40 34-64 7-14 16-29 25-45 3-5 4-10 4-15 0-12-5-21-16-28-16-9-35-3-44 13l-68 123c-5 10-5 20 0 31l64 116c9 16 28 22 44 13 11-7 16-16 16-28zM164 140c-16-9-35-3-44 13L52 276c-5 10-5 20 0 31l64 116c9 16 28 22 44 13 11-7 16-16 16-28 0-7-1-12-4-15l-23-42c-12-23-25-48-32-59 7-12 21-40 34-64 7-14 16-29 25-45 3-5 4-10 4-15 0-12-5-21-16-28z" glyph-name="guillemotleft" horiz-adv-x="419" unicode="«"/><glyph d="M187 307c6-11 6-21 0-31l-68-123c-8-16-28-22-43-13-11 6-17 15-17 28 0 3 1 8 4 15 9 16 18 31 25 45 13 24 28 52 35 64-7 11-21 36-33 59l-23 42c-3 5-4 10-4 15 0 13 6 22 17 28 15 9 35 3 43-13z" glyph-name="guilsinglright" horiz-adv-x="239" unicode="›"/><glyph d="M176 408c0-7-1-12-4-15l-23-42c-12-23-25-48-32-59 7-12 21-40 34-64 7-14 16-29 25-45 3-5 4-10 4-15 0-12-5-21-16-28-16-9-35-3-44 13L52 276c-5 10-5 20 0 31l64 116c9 16 28 22 44 13 11-7 16-16 16-28z" glyph-name="guilsinglleft" horiz-adv-x="239" unicode="‹"/><glyph d="M96 248c0 33 11 59 33 80-22 21-33 47-33 80v2e2c0 27-21 48-48 48-19 0-32 13-32 32s13 32 32 32c61 0 112-51 112-112V408c0-27 21-48 48-48 17 0 32-13 32-32s-15-32-32-32c-27 0-48-21-48-48V28c0-61-51-112-112-112-19 0-32 13-32 32s13 32 32 32c27 0 48 21 48 48v220z" glyph-name="braceright" horiz-adv-x="256" unicode="}"/><glyph d="M156 716c17 0 32-13 32-32V-48c0-19-15-32-32-32H56c-19 0-32 13-32 32s13 32 32 32h68v668H56c-19 0-32 13-32 32s13 32 32 32h1e2z" glyph-name="bracketright" horiz-adv-x="256" unicode="]"/><glyph d="M212 328c0-71-11-139-34-204C155 56 121-6 77-62c-11-15-30-16-45-5-13 11-16 30-5 45 40 51 70 107 91 167 20 59 30 120 30 183s-10 124-30 183c-21 60-51 116-91 167-11 15-8 34 5 45 15 11 34 10 45-5 45-58 78-120 101-186 23-65 34-133 34-204z" glyph-name="parenright" horiz-adv-x="269" unicode=")"/><glyph d="M241 668c-40-51-70-107-91-167-20-59-30-120-30-183s10-124 30-183c21-60 51-116 91-167 11-15 9-34-6-45s-34-10-45 5C145-15 112 47 90 114c-23 65-34 133-34 204s11 139 34 204c23 68 56 129 1e2 186 11 15 30 16 45 5s17-30 6-45z" glyph-name="parenleft" horiz-adv-x="268" unicode="("/><glyph d="M1e2-80c-19 0-32 13-32 32v732c0 19 13 32 32 32h1e2c19 0 32-13 32-32s-13-32-32-32h-68V-16h68c19 0 32-13 32-32s-13-32-32-32H1e2z" glyph-name="bracketleft" horiz-adv-x="256" unicode="["/><glyph d="M160 408c0-31-13-60-34-80 21-20 34-49 34-80V28c0-27 21-48 48-48 19 0 32-13 32-32s-13-32-32-32C147-84 96-33 96 28v220c0 27-21 48-48 48-19 0-32 13-32 32s13 32 32 32c27 0 48 21 48 48v2e2c0 61 51 112 112 112 19 0 32-13 32-32s-13-32-32-32c-27 0-48-21-48-48V408z" glyph-name="braceleft" horiz-adv-x="256" unicode="{"/><glyph d="M220 28c0 19 13 32 32 32s32-13 32-32v-61c0-40-21-77-56-97-15-9-35-4-44 11-8 16-3 35 12 44 16 9 24 23 24 42v61z" glyph-name="cedilla" horiz-adv-x="500" unicode="¸"/><glyph d="M194 624c27 4 50-2 71-17l8-6c7-5 14-7 22-6 8 2 14 6 18 12 11 15 30 20 45 9 15-9 20-29 9-44-14-21-34-35-61-40-27-4-50 2-71 17l-8 6c-6 5-13 7-22 6-9-3-15-7-18-13-11-15-30-18-45-9-15 11-18 30-9 45 15 21 37 35 61 40z" glyph-name="uni02DC" horiz-adv-x="500" unicode="˜"/><glyph d="M288 578c0 23 19 42 42 42s42-19 42-42-19-42-42-42-42 19-42 42zm-160 0c0 23 19 42 42 42s42-19 42-42-19-42-42-42-42 19-42 42z" glyph-name="dieresis" horiz-adv-x="500" unicode="¨"/><glyph d="M180 513c-15-11-34-10-45 5s-9 34 6 45l90 70c5 5 12 7 19 7s14-2 20-7l90-70c15-11 17-30 6-45s-30-16-45-5l-27 20c-15 11-32 25-44 34-12-9-29-23-44-34z" glyph-name="uni02C6" horiz-adv-x="500" unicode="ˆ"/><glyph d="M322 562c13-12 14-32 2-45-12-15-32-15-45-3l-1e2 90c-13 12-14 32-3 45 12 13 33 15 46 3z" glyph-name="grave" horiz-adv-x="500" unicode="`"/><glyph d="M279 652c13 12 33 10 45-3s11-33-2-45l-1e2-90c-13-12-34-12-45 3-12 13-11 33 2 45z" glyph-name="acute" horiz-adv-x="500" unicode="´"/><glyph d="M344 67c-11-13-30-15-45-4L59 263c-7 6-11 14-11 25 0 9 4 18 11 25l240 2e2c15 11 34 10 45-5 5-7 8-13 8-20 0-10-4-18-12-25l-88-73-122-102 122-102 88-73c8-7 12-16 12-25 0-7-3-14-8-21z" glyph-name="less" unicode="&lt;"/><glyph d="M64 88c0 9 4 18 11 25l89 73c48 40 98 83 122 102-24 19-74 62-122 102l-89 73c-7 7-11 16-11 25 0 8 2 15 7 20 12 15 32 16 45 5l240-2e2c8-7 12-16 12-25 0-11-4-19-12-25L116 63c-13-11-33-9-45 4-5 5-7 12-7 21z" glyph-name="greater" unicode="&gt;"/><glyph d="M328 240c19 0 32-13 32-32s-13-32-32-32H88c-17 0-32 13-32 32s15 32 32 32h240zm0 160c19 0 32-13 32-32s-13-32-32-32H88c-17 0-32 13-32 32s15 32 32 32h240z" glyph-name="equal" unicode="="/><glyph d="M331 411c6-7 9-14 9-23s-3-16-9-23l-78-77 78-77c6-7 9-14 9-23s-3-16-9-23c-7-6-14-9-23-9s-16 3-23 9l-77 78-77-78c-7-6-14-9-23-9s-16 3-23 9c-6 7-9 14-9 23s3 16 9 23l78 77-78 77c-6 7-9 14-9 23s3 16 9 23c7 6 14 9 23 9s16-3 23-9l77-78 77 78c7 6 14 9 23 9s16-3 23-9z" glyph-name="multiply" unicode="×"/><glyph d="M166 158c0 23 18 42 42 42 23 0 42-19 42-42s-19-42-42-42c-24 0-42 19-42 42zm42 218c-24 0-42 19-42 42s18 42 42 42c23 0 42-19 42-42s-19-42-42-42zm152-88c0-19-15-32-32-32H88c-19 0-32 13-32 32s13 32 32 32h240c17 0 32-13 32-32z" glyph-name="divide" unicode="÷"/><glyph d="M328 64c19 0 32-13 32-32S347 0 328 0H88C71 0 56 13 56 32s15 32 32 32h240zm0 256c19 0 32-13 32-32s-13-32-32-32h-88v-88c0-19-13-32-32-32-17 0-32 13-32 32v88H88c-17 0-32 13-32 32s15 32 32 32h88v88c0 19 15 32 32 32 19 0 32-13 32-32v-88h88z" glyph-name="plusminus" unicode="±"/><glyph d="M328 320c19 0 32-13 32-32V168c0-19-13-32-32-32-17 0-32 13-32 32v88H88c-17 0-32 13-32 32s15 32 32 32h240z" glyph-name="logicalnot" unicode="¬"/><glyph d="M71 404c-13 12-14 32-3 45l158 180c6 7 14 11 24 11s18-4 24-11l158-180c11-13 10-33-3-45-15-12-34-10-46 3l-53 61-80 91c-19-20-51-58-80-91l-53-61c-12-13-31-15-46-3z" glyph-name="asciicircum" horiz-adv-x="500" unicode="^"/><glyph d="M328 320c17 0 32-13 32-32s-15-32-32-32h-88v-88c0-19-15-32-32-32-19 0-32 13-32 32v88H88c-19 0-32 13-32 32s13 32 32 32h88v88c0 19 13 32 32 32 17 0 32-13 32-32v-88h88z" glyph-name="plus" unicode="+"/><glyph d="M276 518c0-66-54-119-119-119-66 0-119 53-119 119 0 65 53 119 119 119 65 0 119-54 119-119zM96 518c0-35 26-61 61-61s61 26 61 61-26 61-61 61-61-26-61-61z" glyph-name="degree" horiz-adv-x="313" unicode="°"/><glyph d="M104 260c19 0 32-13 32-32v-4e2c0-19-13-32-32-32s-32 13-32 32v4e2c0 19 13 32 32 32zm0 6e2c19 0 32-13 32-32V428c0-19-13-32-32-32s-32 13-32 32v4e2c0 19 13 32 32 32z" glyph-name="brokenbar" horiz-adv-x="208" unicode="¦"/><glyph d="M109 860c19 0 32-13 32-32v-1e3c0-19-13-32-32-32s-32 13-32 32v1e3c0 19 13 32 32 32z" glyph-name="bar" horiz-adv-x="208" unicode="|"/><glyph d="M358-1c7-17-2-34-19-41-16-7-34 2-41 19L58 637c-7 17 3 34 19 41 17 7 34-3 41-19z" glyph-name="backslash" unicode="\"/><glyph d="M339 678c17-7 26-24 19-41L118-23c-7-17-24-26-41-19-16 7-26 24-19 41l240 660c7 16 25 26 41 19z" glyph-name="slash" unicode="/"/><glyph d="M5e2 780c17 0 32-13 32-32s-15-32-32-32H0c-19 0-32 13-32 32s13 32 32 32h5e2z" glyph-name="uni00AF" horiz-adv-x="500" unicode="¯"/><glyph d="M5e2-80c17 0 32-13 32-32s-15-32-32-32H0c-19 0-32 13-32 32s13 32 32 32h5e2z" glyph-name="underscore" horiz-adv-x="500" unicode="_"/><glyph d="M0 256c-17 0-32 13-32 32s15 32 32 32h1e3c19 0 32-13 32-32s-13-32-32-32H0z" glyph-name="emdash" horiz-adv-x="1e3" unicode="—"/><glyph d="M5e2 320c19 0 32-13 32-32s-13-32-32-32H0c-17 0-32 13-32 32s15 32 32 32h5e2z" glyph-name="endash" horiz-adv-x="500" unicode="–"/><glyph d="M293 295c35-27 53-68 54-112 0-43-19-84-52-112-19-16-39-25-62-32v-51c0-19-15-32-32-32-19 0-32 13-32 32v52c-40 8-74 33-95 69-9 15-3 35 12 44 15 8 35 3 44-12 13-23 32-36 57-40 2-1 4-1 6-1h7 1c20 0 38 7 53 20 19 16 29 37 29 63-1 24-12 47-31 62L127 348c-33 27-52 65-52 108-1 43 17 83 50 110 17 15 37 25 60 30v52c0 19 13 32 32 32 17 0 32-13 32-32v-52c39-9 71-32 91-67 8-15 3-35-12-44s-35-3-44 12c-11 21-29 34-54 38-2 1-4 1-7 1h-6-1c-19 0-35-6-50-19-19-16-28-36-27-60 0-25 9-44 28-59z" glyph-name="dollar" unicode="$"/><glyph d="M196 391c-27-11-42-35-42-63V128c0-28 15-52 42-63 9-3 17-5 25-5h1 1c18 0 34 7 47 20 6 6 13 9 22 9s16-3 23-9c6-7 9-14 9-23s-3-16-9-22c-17-19-38-28-61-35v-52c0-19-15-32-32-32-19 0-32 13-32 32V0c-7 1-13 3-19 6-49 21-81 67-81 122v2e2c0 55 32 101 81 122 7 3 12 3 19 6v52c0 19 13 32 32 32 17 0 32-13 32-32v-52c23-7 44-16 61-35 6-6 9-13 9-22s-3-16-9-23c-7-6-14-9-23-9s-16 3-22 9c-13 13-29 20-47 20h-1-1c-8 0-16-2-25-5z" glyph-name="cent" unicode="¢"/><glyph d="M348 64c19 0 32-13 32-32S367 0 348 0H68C53 0 40 11 37 27c-3 15 6 30 21 35 35 13 58 46 58 83v151H68c-17 0-32 13-32 32s15 32 32 32h48v148c0 60 41 112 98 127 59 16 118-9 149-61 8-15 3-35-12-44s-35-3-44 12c-15 27-47 40-76 32-31-8-51-35-51-66V360h88c19 0 32-13 32-32s-13-32-32-32h-88V145c0-29-8-56-23-81h191z" glyph-name="sterling" unicode="£"/><glyph d="M208 176c-31 0-59 9-82 24l-37-36c-6-7-14-10-23-10s-16 3-22 10c-7 6-10 13-10 22s3 17 10 23l36 37c-15 23-24 51-24 82s9 59 24 82l-36 37c-7 6-10 13-10 22s3 17 10 23c6 6 13 9 22 9s17-3 23-9l37-36c23 15 51 24 82 24s59-9 82-24l37 36c6 6 13 9 22 9s17-3 23-9c7-6 10-14 10-23s-3-16-10-22l-36-37c15-23 24-51 24-82s-9-59-24-82l36-37c7-6 10-14 10-23s-3-16-10-22c-6-7-14-10-23-10s-16 3-22 10l-37 36c-23-15-51-24-82-24zm88 152c0 48-40 88-88 88-49 0-88-40-88-88 0-49 39-88 88-88 48 0 88 39 88 88z" glyph-name="_191"/><glyph d="M176 136H92c-19 0-32 13-32 32s13 32 32 32h84v96H92c-19 0-32 13-32 32s13 32 32 32h64L39 594c-8 15-1 35 15 43 15 7 35 1 43-15l111-222 111 222c8 16 27 22 43 15 16-8 22-28 15-43L260 360h72c19 0 32-13 32-32s-13-32-32-32h-92v-96h92c19 0 32-13 32-32s-13-32-32-32h-92V28c0-19-13-32-32-32s-32 13-32 32v108z" glyph-name="yen" unicode="¥"/><glyph d="M227 573c-39-11-65-45-65-85v-58h128c17 0 32-13 32-32s-15-32-32-32H162v-96h88c17 0 32-13 32-32s-15-32-32-32h-88v-58c0-40 26-74 65-85s79 6 99 41l10 17c9 16 28 21 44 12 15-9 20-28 11-44l-10-17C346 12 278-18 210 1 143 20 98 79 98 148v58H50c-19 0-32 13-32 32s13 32 32 32h48v96H50c-19 0-32 13-32 32s13 32 32 32h48v58c0 69 45 128 112 147 68 19 136-11 171-71l10-17c9-16 4-35-11-44-16-9-35-4-44 12l-10 17c-20 35-60 52-99 41z" glyph-name="uni20AC" unicode="€"/><glyph d="M349 1e2l-18-30c-23-37-57-60-98-71-41-9-83 0-118 23-36 25-58 59-65 102s3 82 30 117l80 104-68 88-1 1v1h-1v1c-27 41-29 93-5 136 24 44 69 71 120 68s94-31 115-76 16-97-15-137l-64-82 76-99 25-33 31 51c9 16 29 20 44 11s20-28 11-44l-44-72 79-101c11-15 9-34-6-45s-34-10-45 5zM201 397l53 69c16 21 19 48 8 71s-34 38-59 39c-27 1-49-12-62-35-12-23-11-49 2-70zM307 154l-41 53-65 85-70-90c-15-21-21-43-17-68 3-24 17-44 37-59 20-14 43-18 68-13 24 5 43 19 57 41z" glyph-name="ampersand" horiz-adv-x="493" unicode="&amp;"/><glyph d="M239 405v-97c0-17-14-31-31-31s-30 14-30 31v97l-85-48c-15-9-33-4-41 11-9 15-4 33 11 41l84 49-84 49c-15 8-20 26-11 41 8 15 26 20 41 11l85-48v97c0 17 13 30 30 30s31-13 31-30v-97l84 48c15 9 33 4 41-11 9-15 4-33-11-41l-84-49 84-49c15-8 20-26 11-41-8-15-26-20-41-11z" glyph-name="asterisk" unicode="*"/><glyph d="M737 237c64 0 118-54 118-119C855 52 801-1 737-1c-66 0-119 53-119 119 0 65 53 119 119 119zm0-180c33 0 61 26 61 61s-28 61-61 61c-35 0-62-26-62-61s27-61 62-61zM437 237c64 0 118-54 118-119C555 52 501-1 437-1c-66 0-119 53-119 119 0 65 53 119 119 119zm0-180c33 0 61 26 61 61s-28 61-61 61c-35 0-62-26-62-61s27-61 62-61zM275 518c0-66-54-119-118-119-66 0-119 53-119 119 0 65 53 119 119 119 64 0 118-54 118-119zM95 518c0-35 27-61 62-61 33 0 61 26 61 61s-28 61-61 61c-35 0-62-26-62-61zM451 637c15-8 22-27 14-43L185 14c-7-16-26-23-42-15s-23 27-15 43l280 580c8 16 27 22 43 15z" glyph-name="perthousand" horiz-adv-x="893" unicode="‰"/><glyph d="M437 237c65 0 119-54 119-119C556 52 502-1 437-1c-66 0-119 53-119 119 0 65 53 119 119 119zm0-180c35 0 61 26 61 61s-26 61-61 61-61-26-61-61 26-61 61-61zM276 518c0-66-54-119-119-119-66 0-119 53-119 119 0 65 53 119 119 119 65 0 119-54 119-119zM96 518c0-35 26-61 61-61s61 26 61 61-26 61-61 61-61-26-61-61zM451 637c16-8 22-27 15-43L186 14c-8-16-27-23-43-15s-23 27-15 43l280 580c8 16 27 22 43 15z" glyph-name="percent" horiz-adv-x="593" unicode="%"/><glyph d="M340 377v-99h69c17 0 31-13 31-30s-14-31-31-31h-69V28c0-17-14-31-31-31s-30 14-30 31v189h-99V28c0-17-14-31-31-31s-30 14-30 31v189H49c-17 0-30 14-30 31s13 30 30 30h70v99H49c-17 0-30 14-30 31s13 30 30 30h70v170c0 17 13 30 30 30s31-13 31-30V438h99v170c0 17 13 30 30 30s31-13 31-30V438h69c17 0 31-13 31-30s-14-31-31-31h-69zm-61 0h-99v-99h99v99z" glyph-name="numbersign" horiz-adv-x="458" unicode="#"/><glyph d="M434 634c17 0 31-13 31-30s-14-31-31-31h-39V-52c0-17-14-31-31-31s-30 14-30 31v625h-79V-52c0-17-14-31-31-31s-30 14-30 31v385h-10c-83 0-150 68-150 151s67 150 150 150h250zM194 573h-10c-49 0-89-40-89-89s40-90 89-90h10v179z" glyph-name="paragraph" horiz-adv-x="480" unicode="¶"/><glyph d="M349 653c47 16 99 4 134-32 7-6 10-13 10-22s-3-16-10-23c-6-6-14-9-23-9s-16 3-22 9c-19 19-45 25-69 17-25-8-43-28-46-55l-13-82h62c19 0 32-13 32-32s-13-32-32-32h-72L240 8c-8-51-42-90-89-106-48-15-99-3-135 33-6 6-9 13-9 22s3 16 9 23c7 6 14 9 23 9s16-3 23-9c19-19 44-25 69-17 24 8 42 28 46 55l58 374h-63c-17 0-32 13-32 32s15 32 32 32h73l14 92c8 51 42 90 90 105z" glyph-name="uni0192" horiz-adv-x="500" unicode="ƒ"/><glyph d="M330 456c19 0 32-13 32-32s-13-32-32-32h-88V-52c0-19-13-32-32-32-17 0-32 13-32 32v444H90c-17 0-32 13-32 32s15 32 32 32h88v152c0 19 15 32 32 32 19 0 32-13 32-32V456h88z" glyph-name="dagger" horiz-adv-x="420" unicode="†"/><glyph d="M242 392V164h88c19 0 32-13 32-32s-13-32-32-32h-88V-52c0-19-13-32-32-32-17 0-32 13-32 32v152H90c-17 0-32 13-32 32s15 32 32 32h88v228H90c-17 0-32 13-32 32s15 32 32 32h88v152c0 19 15 32 32 32 19 0 32-13 32-32V456h88c19 0 32-13 32-32s-13-32-32-32h-88z" glyph-name="daggerdbl" horiz-adv-x="420" unicode="‡"/><glyph d="M298 262c31-32 47-76 43-121-3-45-25-86-61-113S198-10 154-1 72 35 49 74c-9 16-4 35 12 44 15 9 35 4 43-12 15-24 35-39 62-44 28-5 53 0 75 17 21 16 34 40 37 67s-7 53-26 72L92 382c-31 31-46 74-43 117 4 44 25 83 60 110s79 37 122 28 79-34 102-73c8-15 3-35-12-44s-35-3-44 12c-12 23-34 37-59 42s-49 0-70-16-33-37-35-63c-2-27 6-49 25-68zM272 832c15 11 32 8 43-5 11-15 8-32-5-43l-90-70c-5-5-12-7-19-7s-14 2-19 7l-90 70c-13 11-16 28-5 43 11 13 28 16 43 5l26-21c15-12 33-25 45-34 11 9 29 22 44 34z" glyph-name="Scaron" horiz-adv-x="387" unicode="Š"/><glyph d="M344 604c0-4-1-8-3-12l-99-236L120 64h192c19 0 32-13 32-32S331 0 312 0H72C60 0 51 5 45 14c-3 7-5 13-5 18 0 3 1 7 2 12l99 235 123 293H72c-19 0-32 13-32 32s13 32 32 32h240c12 0 21-5 27-14 3-7 5-13 5-18zM263 832c15 11 32 8 43-5 11-15 8-32-5-43l-90-70c-5-5-12-7-19-7s-14 2-19 7l-90 70c-13 11-16 28-5 43 11 13 28 16 43 5l26-21c15-12 33-25 45-34 11 9 29 22 44 34z" glyph-name="Zcaron" horiz-adv-x="384" unicode="Ž"/><glyph d="M227 224c31-23 49-55 52-94s-12-74-40-99C211 4 174-6 137-1 98 6 67 27 48 60c-8 15-4 33 11 41s33 4 41-11c11-17 26-28 46-31 19-3 37 2 53 16 15 14 22 31 20 51-1 20-10 36-27 48l-93 66c-31 21-48 54-51 90-3 37 12 72 39 96 27 25 63 36 99 31 36-7 67-27 86-59 8-15 4-33-11-41s-33-4-41 11c-9 16-24 26-43 29s-36-2-50-15-20-29-19-48 10-34 26-45zm13 406c13 11 31 8 40-5 11-12 8-29-5-40l-90-70c-11-9-23-9-35 0l-90 70c-12 11-14 28-5 40 11 13 28 16 40 5 10-7 19-14 28-21l45-35c11 9 30 23 45 35z" glyph-name="scaron" horiz-adv-x="329" unicode="š"/><glyph d="M302 424c0-5-1-9-3-14l-76-148c-40-78-86-166-102-2e2h151c17 0 30-13 30-30S289 2 272 2H72C61 2 52 7 46 16c-3 5-4 10-4 16 0 4 1 9 3 14l76 148c40 78 83 165 102 2e2H72c-17 0-30 13-30 30s13 30 30 30h2e2c11 0 20-5 26-14 3-7 4-12 4-16zM59 625c11 13 28 16 40 5 10-7 19-14 28-21l45-35c11 9 30 23 45 35l27 21c13 11 31 8 40-5 11-12 8-29-5-40l-90-70c-11-9-23-9-35 0l-90 70c-12 11-14 28-5 40z" glyph-name="zcaron" horiz-adv-x="344" unicode="ž"/><glyph d="M315 64c19 0 32-13 32-32S334 0 315 0H115C96 0 83 13 83 32v241l-30-18c-15-9-35-3-44 12s-3 35 12 44l62 35v262c0 19 13 32 32 32s32-13 32-32V383l56 33c15 8 35 3 44-12 8-15 3-35-12-44l-88-51V64h168z" glyph-name="Lslash" horiz-adv-x="375" unicode="Ł"/><glyph d="M182 399c15 8 33 4 41-11s4-33-11-41l-63-36V97c0-19 10-34 25-43 15-8 19-26 11-41S159-6 144 2c-35 20-55 56-55 95v179l-33-19c-15-8-33-4-41 11s-4 33 11 41l63 36v283c0 17 13 30 30 30s30-13 30-30V380z" glyph-name="lslash" horiz-adv-x="238" unicode="ł"/><glyph d="M3e2 458c17 0 30-13 30-30V28c0-17-13-30-30-30-15 0-25 9-29 21-21-14-45-21-71-21s-49 7-70 20v-190c0-17-13-30-30-30s-30 13-30 30v6e2c0 17 13 30 30 30s30-13 30-30V128c0-39 31-70 70-70s70 31 70 70v3e2c0 17 13 30 30 30z" glyph-name="uni00B5" horiz-adv-x="400" unicode="µ"/><glyph d="M223 378c0-45-30-84-73-95-44-12-89 7-112 46-8 13-4 31 11 39s31 4 39-11c11-16 28-24 47-19s30 21 30 40v20c0 23-18 41-41 41-16 0-29 13-29 29s13 29 29 29c15 0 27 7 36 20 7 14 7 28 0 42-9 13-21 20-36 20s-27-7-36-20c-8-15-24-19-39-11s-19 26-11 39c19 31 51 50 86 50s68-19 85-50c9-15 14-32 14-49s-5-34-14-49c-4-8-9-15-15-21 19-19 29-43 29-70v-20zM566 137c16 0 29-13 29-29s-13-29-29-29h-23V28c0-16-13-29-29-29s-29 13-29 29v51H385c-11 0-19 4-24 13-6 9-7 18-3 27l89 220c7 15 23 23 38 16 12-5 18-14 18-27 0-4-1-7-2-11l-29-70-45-110h58v31c0 16 13 29 29 29s29-13 29-29v-31h23zM468 637c16-8 22-27 15-43L203 14c-8-16-27-23-43-15s-23 27-15 43l280 580c8 16 27 22 43 15z" glyph-name="threequarters" horiz-adv-x="628" unicode="¾"/><glyph d="M115 539l-27-28c-4-5-8-9-12-12-6-5-13-8-21-8s-15 3-20 8-8 12-8 20 3 15 8 21l89 88c8 9 18 12 31 7 12-5 18-14 18-27V308c0-16-13-29-29-29s-29 13-29 29v231zM536 137c16 0 29-13 29-29s-13-29-29-29h-23V28c0-16-13-29-29-29s-29 13-29 29v51H355c-11 0-19 4-24 13-6 9-7 18-3 27l89 220c7 15 23 23 38 16 12-5 18-14 18-27 0-4-1-7-2-11l-29-70-45-110h58v31c0 16 13 29 29 29s29-13 29-29v-31h23zM438 637c16-8 22-27 15-43L173 14c-8-16-27-23-43-15s-23 27-15 43l280 580c8 16 27 22 43 15z" glyph-name="onequarter" horiz-adv-x="598" unicode="¼"/><glyph d="M115 539l-27-28c-4-5-8-9-12-12-6-5-13-8-21-8s-15 3-20 8-8 12-8 20 3 15 8 21l89 88c8 9 18 12 31 7 12-5 18-14 18-27V308c0-16-13-29-29-29s-29 13-29 29v231zM547 205l-33-53-58-91h78c16 0 29-13 29-29S550 3 534 3H403c-11 0-20 5-25 15-3 5-4 10-4 15s2 10 5 14l120 189c7 9 8 20 5 31-2 11-8 19-19 26-9 7-20 8-31 5s-19-9-26-19c-8-15-24-19-39-11s-19 26-11 39c14 24 34 40 61 47 27 6 53 2 76-12 24-13 39-34 45-62 6-27 2-52-13-75zM438 637c16-8 22-27 15-43L173 14c-8-16-27-23-43-15s-23 27-15 43l280 580c8 16 27 22 43 15z" glyph-name="onehalf" horiz-adv-x="596" unicode="½"/><glyph d="M155 635c12-5 18-14 18-27V308c0-16-13-29-29-29s-29 13-29 29v231l-27-28c-4-5-8-9-12-12-6-5-13-8-21-8s-15 3-20 8-8 12-8 20 3 15 8 21l89 88c8 9 18 12 31 7z" glyph-name="onesuperior" horiz-adv-x="234" unicode="¹"/><glyph d="M227 485l-33-53-58-91h78c16 0 29-13 29-29s-13-29-29-29H83c-11 0-20 5-25 15-3 5-4 10-4 15s2 10 5 14l120 189c7 9 8 20 5 31-2 11-8 19-19 26-9 7-20 8-31 5s-19-9-26-19c-8-15-24-19-39-11s-19 26-11 39c14 24 34 40 61 47 27 6 53 2 76-12 24-13 39-34 45-62 6-27 2-52-13-75z" glyph-name="twosuperior" horiz-adv-x="297" unicode="²"/><glyph d="M213 468c19-19 29-43 29-70v-20c0-45-30-84-73-95-44-12-89 7-112 46-8 13-4 31 11 39s31 4 39-11c11-16 28-24 47-19s30 21 30 40v20c0 23-18 41-41 41-16 0-29 13-29 29s13 29 29 29c15 0 27 7 36 20 7 14 7 28 0 42-9 13-21 20-36 20s-27-7-36-20c-8-15-24-19-39-11s-19 26-11 39c19 31 51 50 86 50s68-19 85-50c9-15 14-32 14-49s-5-34-14-49c-4-8-9-15-15-21z" glyph-name="threesuperior" horiz-adv-x="296" unicode="³"/><glyph d="M179 633c43-11 73-50 73-95V328c0-16-13-29-29-29h-70c-56 0-99 43-99 99 0 53 43 99 99 99h41v41c0 19-11 35-30 40s-36-3-47-19c-8-15-24-19-39-11s-19 26-11 39c23 39 68 58 112 46zM112 398c0-23 18-41 41-41h41v82h-41c-23 0-41-18-41-41z" glyph-name="ordfeminine" horiz-adv-x="305" unicode="ª"/><glyph d="M153 637c53 0 99-46 99-99V398c0-56-46-99-99-99-56 0-99 43-99 99v140c0 53 43 99 99 99zm0-280c23 0 41 18 41 41v140c0 23-18 41-41 41s-41-18-41-41V398c0-23 18-41 41-41z" glyph-name="ordmasculine" horiz-adv-x="305" unicode="º"/><glyph d="M290 383c36-28 53-73 44-117-5-27-19-50-38-69 19-22 28-48 28-77 1-36-14-71-42-94C253 1 219-8 182-2c-36 7-66 27-85 59-9 15-4 35 12 44 15 8 34 3 43-12s23-25 41-28c17-3 33 1 47 13 13 11 21 28 20 45 0 19-7 33-21 44l-112 89h-1c-35 29-52 74-43 118 5 28 18 51 38 69-18 21-28 47-29 77 0 36 15 71 43 94 27 24 64 35 1e2 28s66-27 85-59c9-15 4-35-12-44-15-9-34-3-43 12s-23 25-41 28c-17 3-33-1-47-13-14-11-21-26-21-45 1-19 9-33 22-44zM246 239c13 9 22 23 25 38 4 21-4 43-20 56l-80 64c-14-10-23-23-26-38-4-23 3-42 21-56z" glyph-name="section" unicode="§"/><glyph d="M415 511c55-43 89-108 89-183 0-63-24-120-68-164S335 96 272 96c-30 0-59 6-87 17l-30-52c-9-16-29-21-44-12S90 77 99 93l30 52c-55 43-89 108-89 183 0 127 103 232 232 232 30 0 59-6 87-17l30 52c9 15 29 21 44 12s20-29 12-44zM104 328c0-51 22-96 58-127l165 286c-17 6-36 9-55 9-93 0-168-75-168-168zM391 209c31 32 49 74 49 119 0 51-22 96-58 127L217 169c17-6 35-9 55-9 47 0 86 16 119 49z" glyph-name="phi" horiz-adv-x="544" unicode="φ"/><glyph d="M68 604c0 19 13 32 32 32h120c84 0 152-68 152-152v-56c0-84-68-152-152-152h-88V28c0-19-13-32-32-32S68 9 68 28v576zM308 484c0 48-40 88-88 88h-88V340h88c48 0 88 39 88 88v56z" glyph-name="P" horiz-adv-x="400" unicode="P"/><glyph d="M360 303c15-9 18-27 9-42-19-28-48-47-80-52-34-6-65 1-93 22l-12 9c-13 11-29 14-46 11s-30-12-39-26c-9-15-27-19-42-8-15 9-18 27-9 42 19 29 45 47 80 52 32 7 66-2 93-22l12-9c13-11 29-14 46-11s30 12 39 26c9 15 27 17 42 8z" glyph-name="asciitilde" unicode="~"/><glyph d="M208 176c-31 0-59 9-82 24l-37-36c-6-7-14-10-23-10s-16 3-22 10c-7 6-10 13-10 22s3 17 10 23l36 37c-15 23-24 51-24 82s9 59 24 82l-36 37c-7 6-10 13-10 22s3 17 10 23c6 6 13 9 22 9s17-3 23-9l37-36c23 15 51 24 82 24s59-9 82-24l37 36c6 6 13 9 22 9s17-3 23-9c7-6 10-14 10-23s-3-16-10-22l-36-37c15-23 24-51 24-82s-9-59-24-82l36-37c7-6 10-14 10-23s-3-16-10-22c-6-7-14-10-23-10s-16 3-22 10l-37 36c-23-15-51-24-82-24zm88 152c0 48-39 88-88 88s-88-40-88-88c0-49 39-88 88-88s88 39 88 88z" glyph-name="currency" unicode="¤"/></font>
</defs>
</svg>
